<svg width="52" height="32" viewBox="0 0 52 32" fill="none" xmlns="http://www.w3.org/2000/svg"><rect width="52" height="32" rx="5" fill="#fff"/><mask id="a" style="mask-type:alpha" maskUnits="userSpaceOnUse" x="0" y="0" width="52" height="32"><rect width="52" height="32" rx="5" fill="#fff"/></mask><g mask="url(#a)"><path d="M2.642 14.455H1l.718-1.553 1.804-3.901h1.912l2.52 5.454H6.276l-.463-1.092H3.108l-.466 1.092zm.986-2.276H5.28l-.825-1.909-.827 1.909zm11.83 2.275V9h-2.315l-1.324 3.525-1.358-3.517L8.128 9v5.454h1.466v-4.019l1.558 4.02h1.286l1.554-4.02v4.02h1.466zm5.787-4.234V9h-4.784v5.454h4.785V13.27h-3.303v-.969h3.225v-1.148h-3.225v-.933h3.302zm4.553 2.226l1.93 2.01h-1.793l-1.757-1.938h-.618v1.937h-1.466V9.001h3.263c1.08 0 2.05.622 2.05 1.77 0 .98-.817 1.613-1.609 1.675zm.133-1.65c0-.283-.293-.575-.695-.575H23.56v1.148h1.698c.294 0 .673-.212.673-.574zM28.005 9v5.454h1.497V9h-1.497zm2.21 2.75c0 1.559.95 2.704 2.513 2.704h.323l.618-1.191h-.386c-.934 0-1.582-.444-1.582-1.5 0-.89.567-1.471 1.368-1.471h1.68V9h-1.62c-1.975 0-2.913 1.152-2.913 2.75zm3.504 2.705l2.523-5.454h1.912l2.52 5.454h-1.679l-.463-1.092h-2.705l-.466 1.092H33.72zm2.629-2.276h1.651l-.824-1.909-.827 1.909zm8.403 2.275h1.804V9h-1.466v3.427L42.709 9h-1.864v5.454h1.466v-3.516l2.44 3.516zm-28.29 5.31v-1.22h-4.784V24h4.784v-1.184H13.16v-.969h3.225v-1.148H13.16v-.933h3.302zm23.442 0v-1.22H35.12V24h4.784v-1.184h-3.302v-.969h3.21v-1.148H36.6v-.933h3.302zm-18.619-1.22l-1.425 1.708-1.42-1.707h-1.847l2.384 2.76L16.647 24h1.82l1.346-1.68 1.38 1.68h1.846l-2.334-2.727 2.354-2.727h-1.775zm5.168.002c1.328 0 2.105.796 2.105 1.834 0 1.253-.99 1.898-2.296 1.898h-1.543V24h-1.505v-5.454h3.238zm-.109 1.233h-1.625v1.256h1.62c.428 0 .728-.264.728-.628 0-.387-.301-.628-.723-.628zm6.554 2.21l1.93 2.01h-1.793l-1.757-1.938h-.618V24h-1.466v-5.454h3.263c1.08 0 2.05.622 2.05 1.77 0 .98-.817 1.612-1.609 1.675zm.133-1.65c0-.282-.293-.574-.695-.574H30.66v1.148h1.698c.294 0 .673-.212.673-.574zm10.486 2.476h-2.934v1.184h3.125c1.29 0 1.912-.781 1.912-1.736 0-.887-.557-1.565-1.842-1.565h-1.389c-.36 0-.54-.25-.54-.476 0-.22.145-.45.617-.45h2.47l.617-1.227h-2.855c-1.713 0-2.3.843-2.3 1.718 0 .98.641 1.633 1.794 1.633h1.325c.435 0 .623.232.623.461 0 .24-.188.458-.623.458zm7.36-1.209c-.227-.544-.777-.908-1.718-.908h-1.389c-.36 0-.54-.25-.54-.476 0-.22.145-.45.617-.45h2.469l.56-1.114.057-.113h-2.854c-1.713 0-2.3.843-2.3 1.718 0 .98.64 1.633 1.793 1.633h1.326l.021.002c.42.008.602.234.602.46a.41.41 0 01-.07.228c-.089.133-.266.229-.553.229h-2.934v1.184h3.125c.503 0 .904-.12 1.206-.322.274-.182.468-.432.582-.724.082-.212.124-.445.124-.69 0-.237-.041-.459-.124-.657z" fill="#3077A5"/></g></svg>