<!--?xml version="1.0" standalone="no"?-->
              <svg id="sw-js-blob-svg" viewBox="0 0 100 100" xmlns="http://www.w3.org/2000/svg" version="1.1">
                    <defs> 
                        <linearGradient id="sw-gradient" x1="0" x2="1" y1="1" y2="0">
                            <stop id="stop1" stop-color="rgba(248, 117, 55, 1)" offset="0%"></stop>
                            <stop id="stop2" stop-color="rgba(251, 168, 31, 1)" offset="100%"></stop>
                        </linearGradient>
                    </defs>
                <path fill="url(#sw-gradient)" d="M12.1,-17.9C14.3,-15,13.8,-9.7,17.9,-4.1C22.1,1.4,30.9,7.2,30,9.7C29,12.2,18.4,11.4,11.8,13.1C5.2,14.8,2.6,19,-1.2,20.7C-5.1,22.4,-10.2,21.7,-12.3,18.6C-14.5,15.4,-13.7,9.8,-13.6,5.5C-13.4,1.3,-13.8,-1.7,-16.5,-9C-19.1,-16.3,-24,-28,-21.6,-30.9C-19.2,-33.7,-9.6,-27.7,-2.3,-24.5C4.9,-21.3,9.9,-20.8,12.1,-17.9Z" width="100%" height="100%" transform="translate(50 50)" stroke-width="0" style="transition: all 0.3s ease 0s;"></path>
              </svg>