<svg width="52" height="32" viewBox="0 0 52 32" fill="none" xmlns="http://www.w3.org/2000/svg"><rect width="52" height="32" rx="5" fill="#fff"/><path fill-rule="evenodd" clip-rule="evenodd" d="M24.817 12.718h2.075s2.054-.041 2.033 1.826c-.02 1.39-1.991 1.597-1.991 1.597h-2.116v-3.423zm6.207 6.702c.058.271.255.57.91.601.871.02 1.369-.311 1.369-.311v.643s-.954.228-1.41.228c-.478 0-1.889-.104-1.889-1.41 0-1.058 1.162-1.39 1.826-1.39 1.162.04 1.722.456 1.701 1.638 0 .017-1.912.005-2.507 0zm.002-.52h1.592s0-.601-.767-.601c-.578 0-.767.311-.825.602zm5.036-.65c.23-.249.617-.45 1.266-.45 1.286 0 1.494 1.08 1.473 1.37-.02.29-.124 1.39-1.618 1.39-.564 0-.91-.192-1.12-.431v.348h-1.017v-3.734h1.016v1.508zm.872 1.73c.601-.022.871-.54.871-.789s-.145-.768-.913-.768c-.596 0-.777.45-.83.67v.27c.053.225.235.616.872.616zm8.776-.104l.02.58s-.477.104-.788.104c-.311 0-1.12-.186-1.12-.975v-1.203h-.85v-.54h.85V17.2h1.037v.644h.85v.539h-.85v1.037s0 .52.415.52.436-.063.436-.063zm-3.154-6.598h1.204v2.884h1.016v-2.884H46v-.602h-3.444v.602zm-.415.145l.125-.601s-.52-.228-1.432-.228c-.892 0-2.323.498-2.323 1.846 0 1.328 1.514 1.784 2.448 1.784.933 0 1.244-.145 1.244-.145l-.103-.664s-.415.125-1.12.125c-.685-.021-1.39-.56-1.39-1.162.02-.54.642-1.141 1.452-1.141.622 0 1.1.186 1.1.186zm-9.17-.726s1.701-.083 1.701.913c0 .85-.975.913-.975.913s.27.042.395.228c.103.166.788 1.411.788 1.411h-1.038s-.166-.208-.249-.352c-.062-.146-.249-.457-.249-.457s-.145-.519-.643-.519l-.373-.014v1.342h-.996v-3.465h1.639zm-.643 1.556h.54s.746-.041.788-.498c.02-.435-.726-.498-.726-.498h-.602v.996zm4.17.54h1.66v-.643h-1.66v-.789h1.805v-.664h-2.821v3.465h2.842v-.622h-1.826v-.747zm4.045 2.655h1.017v-.705h-1.017v.705zm0 3.03h1.017v-2.635h-1.017v2.634zm-11.078-4.316h.996v-3.465h-.996v3.465zm-4.648.872h2.075s2.054-.042 2.033 1.825c-.02 1.39-1.991 1.598-1.991 1.598h-2.116v-3.424zm1.017 2.78h.664s1.37-.084 1.37-1.142c0-1.058-1.453-1.162-1.453-1.162h-.58v2.304zm0-4.316h.664s1.37-.104 1.37-1.141c0-1.079-1.453-1.162-1.453-1.162h-.58v2.303zm-10.332-.717v6.941s-4.025-.726-4.025-3.485c0-2.2 2.98-3.17 4.025-3.456zm0-.13c-2.42-.175-7.904.959-7.904 3.44 0 1.618 2.904 3.984 7.634 4.046.187 0 5.56-.208 5.477-5.975-.07-4.844-3.695-5.693-4.854-5.84v-.296c4.622.293 8.257 3.073 8.257 6.447 0 3.568-4.066 6.473-9.066 6.473-5 0-9.046-2.905-9.046-6.473S10.046 10 15.046 10c.153 0 .305.003.456.008v4.643z" fill="#000"/></svg>