<svg width="52" height="32" viewBox="0 0 52 32" fill="none" xmlns="http://www.w3.org/2000/svg"><rect width="52" height="32" rx="5" fill="#fff"/><path d="M22 32l30-9v4a5 5 0 01-5 5H22z" fill="#FD6020"/><path fill-rule="evenodd" clip-rule="evenodd" d="M42.192 13.148c1.393 0 2.16.645 2.16 1.862.07.932-.557 1.72-1.394 1.863l1.882 2.65h-1.464l-1.602-2.578h-.14v2.578H40.45v-6.375h1.742zm-.558 2.937h.349c.766 0 1.115-.358 1.115-1.003 0-.573-.349-.931-1.115-.931h-.349v1.934zm-5.296 3.438h3.345V18.45h-2.16v-1.72h2.09v-1.074h-2.09v-1.433h2.16v-1.074h-3.345v6.375zm-3.484-2.077l-1.603-4.298h-1.255l2.579 6.519h.627l2.578-6.52h-1.254l-1.672 4.299zM18.707 16.37c0 1.791 1.394 3.296 3.136 3.296.558 0 1.046-.144 1.533-.359v-1.432c-.348.43-.836.716-1.393.716-1.115 0-2.021-.86-2.021-2.006v-.143c-.07-1.146.836-2.149 1.95-2.22.558 0 1.116.286 1.464.716v-1.433c-.418-.287-.975-.358-1.463-.358-1.812-.143-3.206 1.36-3.206 3.223zm-2.16-.788c-.697-.286-.906-.43-.906-.788.07-.43.418-.788.836-.716.349 0 .697.215.976.502l.627-.86c-.488-.43-1.115-.716-1.742-.716-.976-.072-1.812.716-1.882 1.719v.071c0 .86.349 1.362 1.464 1.72.279.071.557.215.836.358.21.143.349.358.349.645 0 .501-.419.93-.837.93h-.07c-.557 0-1.045-.357-1.254-.859l-.766.788c.418.788 1.254 1.218 2.09 1.218 1.115.072 2.021-.788 2.09-1.934v-.215c-.069-.86-.417-1.29-1.81-1.863zm-4.042 3.94h1.185v-6.375h-1.185v6.375zM7 13.148h2.091c1.672.071 2.996 1.504 2.926 3.223 0 .932-.418 1.791-1.115 2.436-.627.502-1.393.788-2.16.716H7v-6.375zm1.533 5.3c.557.072 1.185-.142 1.603-.5.418-.43.627-1.003.627-1.648a2.26 2.26 0 00-.627-1.576c-.418-.358-1.046-.573-1.603-.502h-.348v4.227h.348z" fill="#000"/><path fill-rule="evenodd" clip-rule="evenodd" d="M26.93 13c-1.742 0-3.205 1.433-3.205 3.295 0 1.791 1.393 3.295 3.205 3.367 1.812.072 3.206-1.433 3.275-3.295C30.135 14.504 28.742 13 26.93 13z" fill="#FD6020"/></svg>