<svg width="52" height="32" viewBox="0 0 52 32" fill="none" xmlns="http://www.w3.org/2000/svg"><rect width="52" height="32" rx="5" fill="#fff"/><path d="M31.058 17.716h1.538c.044 0 .147-.015.19-.015a.686.686 0 00.543-.689.711.711 0 00-.542-.688c-.044-.015-.132-.015-.19-.015h-1.54v1.407z" fill="url(#paint0_linear)"/><path d="M32.422 8a2.667 2.667 0 00-2.666 2.667v2.769h3.765c.088 0 .19 0 .264.015.85.043 1.48.483 1.48 1.245 0 .6-.425 1.114-1.216 1.216v.03c.864.058 1.524.541 1.524 1.289 0 .806-.733 1.333-1.7 1.333h-4.132v5.421h3.912a2.667 2.667 0 002.667-2.666V8h-3.898z" fill="#49A25A"/><path d="M33.138 14.873a.623.623 0 00-.542-.63c-.03 0-.102-.014-.146-.014h-1.392v1.289h1.392c.043 0 .131 0 .146-.015a.623.623 0 00.542-.63z" fill="url(#paint1_linear)"/><path d="M17.681 8a2.667 2.667 0 00-2.666 2.667v6.578c.747.367 1.523.601 2.3.601.923 0 1.421-.557 1.421-1.319v-3.106h2.286v3.092c0 1.201-.747 2.183-3.282 2.183-1.538 0-2.74-.337-2.74-.337v5.612h3.912a2.667 2.667 0 002.667-2.667V8H17.68z" fill="#2C71B5"/><path d="M25.05 8a2.667 2.667 0 00-2.666 2.667v3.487c.674-.572 1.846-.938 3.736-.85 1.011.044 2.095.322 2.095.322v1.129a5.072 5.072 0 00-2.022-.587c-1.436-.102-2.3.601-2.3 1.832 0 1.245.864 1.949 2.3 1.831.835-.058 1.48-.322 2.022-.586v1.129s-1.07.278-2.095.322c-1.89.088-3.062-.278-3.736-.85V24h3.912a2.667 2.667 0 002.666-2.667V8H25.05z" fill="#DA3831"/><defs><linearGradient id="paint0_linear" x1="29.751" y1="17.014" x2="36.335" y2="17.014" gradientUnits="userSpaceOnUse"><stop stop-color="#007940"/><stop offset=".229" stop-color="#00873F"/><stop offset=".743" stop-color="#40A737"/><stop offset="1" stop-color="#5CB531"/></linearGradient><linearGradient id="paint1_linear" x1="29.751" y1="14.871" x2="36.336" y2="14.871" gradientUnits="userSpaceOnUse"><stop stop-color="#007940"/><stop offset=".229" stop-color="#00873F"/><stop offset=".743" stop-color="#40A737"/><stop offset="1" stop-color="#5CB531"/></linearGradient></defs></svg>