<svg width="4406" height="2188" viewBox="0 0 4406 2188" fill="none" xmlns="http://www.w3.org/2000/svg"><g opacity=".13" fill="#C1DCFF"><path d="M3586.75 1989.05h-.52l-414.15 15.09.78 8.4 411.55-14.94 374.45 167.38 8.3-6.69-376.52-168.31c-.78-.62-2.33-.93-3.89-.93z"/><path d="M3362.09 2001.15l33.77 160.04-13.9 1.05-33.77-160.03 13.9-1.06z"/><path d="M3365.92 2048.31h-.77c-3.9.32-6.49 2.34-5.97 4.67 4.41 21.31 35.03 46.2 154.65 44.02 3.9 0 7.01-2.02 6.75-4.35 0-2.34-3.37-4.05-7.27-4.05-60.2 1.09-133.37-4.35-140.38-36.71-.52-2.02-3.37-3.58-7.01-3.58zm192.03-58.17c-.26 0-.26 0 0 0-3.89 0-7.01 1.86-7.01 4.2 0 .31.26 33.29-2.85 46.2 0 0-3.9 5.13-51.38 7.15-26.99 1.09-53.2.78-55.79.62-2.34-.15-4.41.31-6.23 1.4-2.6 1.71-2.34 4.36.52 5.91 1.3.78 3.63 1.87 45.15 1.09 29.58-.62 51.38-2.48 64.61-5.28 3.9-.78 15.83-3.43 17.13-9.65 3.11-13.53 2.85-46.04 2.85-47.44 0-2.34-3.37-4.2-7-4.2zm-324.63-333.2c-25.17 0-45.41 2.65-58.12 9.18-2.86 1.56-3.38 4.2-.78 5.91 2.59 1.71 7.01 2.03 9.86.47 43.08-22.09 216.68 12.6 273.76 23.95 11.16 2.18 19.21 3.89 23.88 4.67 22.83 3.89 21.27 7.31 13.75 23.65-.52 1.24-1.3 2.64-1.82 4.04-8.3 18.67-186.05 268.64-187.87 271.28-1.56 2.18.26 4.67 3.63 5.6 3.64.94 7.79-.15 9.35-2.17 7.26-10.27 180.08-253.09 188.65-272.38.52-1.4 1.29-2.8 1.81-4.04 7.27-16.18 12.72-27.85-23.61-34.07-4.41-.78-12.72-2.33-23.1-4.51-78.62-15.71-168.41-31.58-229.39-31.58z"/><path d="M3125.63 1715.28c-3.11 0-5.7 1.09-6.74 2.95-1.04 2.18 1.04 4.51 4.67 5.29l406.88 75.44c3.63.63 7.53-.46 8.82-2.8l25.17-47.13c1.3-2.18-.77-4.66-4.67-5.29-3.63-.77-7.78.47-8.82 2.8l-23.09 43.25-400.4-74.2c-.52-.16-1.04-.31-1.82-.31z"/><path d="M3505.27 1715.28c-1.82 0-3.89.46-5.19 1.4-2.59 1.71-2.34 4.35.52 5.91l269.87 145.59c2.85 1.56 7.27 1.4 9.86-.31 2.6-1.71 2.34-4.35-.52-5.91l-269.87-145.59a10.58 10.58 0 00-4.67-1.09zm-51.38 81.19c-2.59 0-5.19.94-6.23 2.34-1.81 2.02-.26 4.66 3.38 5.6 7.78 2.33 192.28 55.84 232.5 64.71 15.05 3.26 23.61 7.31 25.69 11.98 2.08 4.97-2.59 11.51-14.27 19.59-2.6 1.72-2.08 4.36.78 5.92 2.85 1.55 7.26 1.24 9.86-.47 14.79-10.42 20.5-19.29 17.12-27.22-3.37-7.62-14.53-13.38-34.25-17.74-39.7-8.71-229.39-63.77-231.2-64.39-1.3-.32-2.34-.32-3.38-.32zm-410.77-18.51c-2.86 0-5.45 1.09-6.49 2.8-1.3 2.18.52 4.67 4.15 5.45 3.38.78 325.92 73.11 345.64 77.77 22.84 5.45 45.93 16.8 61.76 30.34 3.9 3.42 7.79 6.84 11.42 10.26 15.05 14.16 29.32 27.54 52.42 30.96 3.89.62 7.52-.78 8.56-3.11 1.04-2.34-1.3-4.51-5.19-5.14-17.64-2.64-30.36-14.62-43.85-27.22-3.64-3.42-7.53-7-11.68-10.58-17.39-14.93-42.82-27.37-67.99-33.44-19.98-4.67-332.66-74.82-345.9-77.78-1.04-.15-1.81-.31-2.85-.31z"/><path d="M3125.12 1796.47c-3.12 0-5.97 1.25-6.75 3.27-11.16 27.07-52.42 56.93-77.07 61.44-25.95 4.83-213.82 75.14-250.67 88.82l-64.09-59.42c-2.08-2.02-6.49-2.49-9.6-1.24-3.38 1.24-4.15 3.89-2.08 5.75l67.99 62.85c2.07 1.86 6.49 2.49 9.6 1.24 63.06-23.64 231.21-86.02 253-90.06 32.18-5.91 75-39.36 86.67-67.51 1.04-2.34-1.29-4.51-5.19-5.14h-1.81zm153.36-52.88c-3.12 0-5.71 1.24-6.75 2.95l-38.92 78.4c-1.04 2.18 1.03 4.51 4.67 5.29 3.63.62 7.52-.62 8.82-2.8l38.92-78.4c1.04-2.18-1.03-4.51-4.67-5.29-.78 0-1.55-.15-2.07-.15zm-105.62-71.87c-2.85 0-5.45 1.09-6.48 2.8-1.3 2.18.52 4.67 4.15 5.45l60.72 13.22c-1.56 4.35-4.41 12.13-7.27 19.91-2.33 6.84-4.41 12.29-5.71 16.33-2.59 7.94-3.63 11.05 3.12 12.29 3.63.62 7.52-.62 8.82-2.8.26-.62.52-1.24.26-1.87.78-4.2 9.6-28.93 15.83-45.57.78-2.02-1.04-4.2-4.41-4.82l-66.69-14.47c-.78-.47-1.56-.47-2.34-.47zm54.76 62.53c-.52-.31-1.3-.46-2.08-.62.78.16 1.3.31 2.08.62zm161.4-59.57c-2.86 0-5.71 1.09-6.75 2.8l-48.26 80.57c-1.3 2.18.52 4.67 4.15 5.45 3.63.78 7.78-.31 9.08-2.49l48.27-80.58c1.29-2.18-.52-4.66-4.16-5.44-.77-.16-1.55-.31-2.33-.31zm78.63 15.09c-3.64 0-6.75 1.71-7.01 3.88 0 .16-2.86 18.05-23.1 21.94-3.63.78-5.7 3.11-4.41 5.29 1.3 2.17 5.19 3.42 8.83 2.64 28.8-5.75 32.43-28.31 32.69-29.24.26-2.34-2.59-4.36-6.49-4.51h-.51z"/><path d="M3228.91 1714.96c-3.37 0-6.49 1.56-7 3.74-.52 2.33 2.33 4.35 6.22 4.66l126.38 9.49c3.89.31 7.26-1.4 7.78-3.73.52-2.33-2.33-4.36-6.23-4.67l-126.37-9.49h-.78zm869.3-106.39c-2.86 0-5.71 1.09-6.75 2.8l-48.52 81.04c-1.04 1.71 0 3.58 2.33 4.67 118.33 56.93 155.18 135.33 109.25 233.01-34.77 74.36 6.23 110.6 33.99 125.38 32.18 17.42 199.81 65.64 206.81 67.66 3.64.94 7.79.16 9.35-2.02 1.55-2.02.26-4.66-3.38-5.6-1.81-.46-172.56-49.62-203.44-66.26-30.88-16.65-60.98-50.4-29.84-116.98 46.97-100.33 9.86-181.06-110.28-240.02l46.71-78.24c1.29-2.18-.52-4.66-4.16-5.44-.52.15-1.29 0-2.07 0zm-495.89 159.13c-2.34 0-4.67.62-5.97 1.86l-59.16 54.45c-2.08 2.02-1.3 4.51 2.07 5.91 3.38 1.24 7.53.78 9.86-1.25l59.17-54.44c2.07-2.02 1.3-4.51-2.08-5.91-1.04-.47-2.59-.62-3.89-.62zm621.74-235.35c-2.33 0-4.41.62-5.71 1.86-2.07 1.87-1.29 4.51 1.82 5.91.52.16 55.79 22.71 74.73 30.18 3.12 1.25 5.97 2.33 8.83 3.42 7.78 2.96 15.82 5.91 16.6 8.09.26.78-.26 1.71-1.81 2.96-10.38 9.33-21.54 31.73-22.32 44.33l-48.52 40.6c-2.34 1.87-1.56 4.51 1.55 5.91 3.12 1.4 7.53.93 9.86-.93l49.83-41.69c.77-.78 1.29-1.56 1.29-2.49 0-10.58 10.9-32.82 19.98-41.07 3.64-3.26 4.93-6.37 3.9-9.48-2.08-5.76-11.16-9.18-22.84-13.54-2.59-1.09-5.45-2.02-8.56-3.26-18.95-7.63-73.96-30.03-74.48-30.18-1.55-.47-2.85-.62-4.15-.62z"/><path d="M4298.53 1562.52c-2.07 0-4.41.63-5.7 1.71l-101.72 83.85c-2.34 1.86-1.56 4.51 1.55 5.91 3.12 1.4 7.53.93 9.86-.93l101.72-83.85c2.34-1.86 1.56-4.51-1.55-5.91-1.3-.62-2.6-.78-4.16-.78zm-63.83-94.42c-.52 0-1.04 0-1.3.16-3.89.47-6.22 2.64-5.45 4.98 5.97 17.11 10.38 44.02 1.56 49.93-15.31 10.42-56.57 60.04-58.38 62.06-1.82 2.03-.26 4.67 3.11 5.6 3.37 1.09 7.78.16 9.34-1.86 11.68-14 44.63-52.27 56.57-60.36 16.35-11.2 4.15-49.62 1.56-57.24-.78-1.87-3.64-3.27-7.01-3.27z"/><path d="M4203.3 1553.04c-2.33 0-4.41.62-5.71 1.71-2.33 1.86-1.55 4.51 1.56 5.91l70.58 29.86c3.11 1.4 7.53.94 9.86-.93 2.34-1.87 1.56-4.51-1.56-5.91l-70.58-29.87c-1.29-.62-2.85-.77-4.15-.77zm-105.35-50.25c-4.93 0-8.82.78-11.68 2.65-6.75 4.51-2.07 12.13 3.89 19.6 1.56 2.17 5.97 2.95 9.35 2.02 3.63-.94 4.93-3.58 3.37-5.6-5.19-6.69-5.71-9.33-5.71-10.27 4.93-.46 21.54 2.96 34.77 5.6 4.15.94 8.82 1.87 13.5 2.8 10.12 2.02 12.19 5.29 12.97 7.62 4.15 11.83-22.06 33.76-36.85 41.85-2.85 1.55-3.11 4.2-.52 5.91 2.6 1.71 7.01 1.87 9.86.31 13.24-7.16 47.23-32.36 41.26-49.78-1.55-4.66-6.74-10.73-22.31-13.84-4.67-.93-9.09-1.87-13.5-2.8-16.86-3.42-29.58-6.07-38.4-6.07z"/><path d="M4074.08 1467.33c-.78 0-1.56 0-2.34.15-3.63.78-5.71 3.11-4.41 5.29l20.76 36.24c1.3 2.18 5.19 3.43 8.82 2.65 3.63-.78 5.71-3.11 4.41-5.29l-20.76-36.24c-.78-1.72-3.37-2.8-6.48-2.8z"/><path d="M4102.88 1462.97c-50.86 0-94.98 1.09-112.88 4.51-51.9 9.8-112.62 42.31-115.21 43.71-2.86 1.56-3.12 4.2-.52 5.91 2.59 1.71 7 1.87 9.86.31.52-.31 60.98-32.66 110.02-42 49.3-9.33 329.55.16 332.41.16 3.89.16 7.26-1.71 7.52-4.04.26-2.34-2.85-4.36-6.74-4.52-7.53 0-127.67-4.04-224.46-4.04z"/><path d="M3976.51 1005.8c-1.82 0-3.89.47-5.19 1.4l-97.05 63.16c-1.3.93-2.08 2.02-1.82 3.26.26 1.25 21.02 130.36 23.36 159.13 2.33 32.82 50.86 156.49 51.12 157.73 8.3 21.16 22.31 84.62 22.57 85.25.52 2.33 4.15 3.88 7.79 3.57 3.89-.31 6.48-2.49 5.96-4.66-.51-2.65-14.27-64.56-22.83-86.18-13.49-34.38-49.04-129.42-50.86-156.17-2.08-27.54-20.24-141.09-23.1-157.73l94.98-61.76c2.59-1.71 2.33-4.35-.52-5.91-1.04-.78-2.6-1.09-4.41-1.09zm387.94 421.55s-.26 0 0 0c-2.34 0-223.95 3.89-261.31 5.13-42.04 1.4-78.37 18.36-95.49 34.53-2.08 2.03-1.04 4.52 2.07 5.76 3.37 1.24 7.53.62 9.6-1.24 14.79-13.85 47.49-29.4 84.34-30.65 37.36-1.24 258.71-5.13 260.79-5.13 3.89 0 7-2.02 6.74-4.36 0-2.33-3.11-4.04-6.74-4.04z"/><path d="M4189.55 1430.46s-.26 0 0 0c-3.89 0-7.01 2.02-7.01 4.36 2.08 75.28-10.9 89.28-18.94 90.99-3.63.78-5.71 3.11-4.41 5.45 1.3 2.18 5.19 3.42 9.08 2.64 21.54-4.51 30.1-34.22 28.28-99.08 0-2.49-3.37-4.36-7-4.36zm-184.76-93.18c-.78 0-1.3 0-2.07.16-3.64.78-5.71 3.11-4.68 5.29l54.5 102.82c1.3 2.18 5.19 3.42 8.82 2.8 3.63-.78 5.71-3.11 4.67-5.29l-54.49-102.82c-1.04-1.87-3.63-2.96-6.75-2.96z"/><path d="M4334.09 1363.57c-.52 0-1.3 0-1.82.16l-289.85 49.62c-3.64.62-5.97 2.96-4.93 5.13 1.04 2.18 4.93 3.58 8.56 2.96l289.85-49.62c3.63-.63 5.97-2.96 4.93-5.14-.78-2.02-3.63-3.11-6.74-3.11zm-7.01-53.66h-1.04l-565.69 47.91c-3.89.31-6.49 2.49-5.97 4.82.52 2.33 4.16 3.89 8.05 3.58l565.69-47.91c3.89-.31 6.49-2.49 5.97-4.82-.52-2.03-3.38-3.58-7.01-3.58z"/><path d="M3821.07 964.736c-2.59 0-5.19.933-6.49 2.489-1.55 2.177 0 4.666 3.64 5.6 5.71 1.555 141.94 37.955 173.6 45.575 27.5 6.53 86.15 12.13 104.83 13.85l24.39 299.12v.47l16.61 69.06c.52 2.34 4.15 3.89 8.04 3.58 3.9-.31 6.49-2.49 5.97-4.82l-16.35-68.91-24.65-302.39c-.26-2.03-2.59-3.74-5.97-4.05-.77 0-76.55-6.38-107.42-13.69-31.4-7.46-171.53-45.106-173.09-45.418-1.29-.311-2.07-.466-3.11-.466zm506.01 54.444h-1.04l-53.2 5.13c-3.63.31-6.22 2.34-5.96 4.51l41.77 339.26c.26 2.34 3.64 4.05 7.53 3.89 3.89-.15 6.75-2.18 6.49-4.51l-41.26-335.37 46.97-4.51c3.89-.31 6.48-2.49 5.7-4.82-.51-2.18-3.63-3.58-7-3.58z"/><path d="M2906.37 1142.07c-3.38 0-6.23 1.4-7.01 3.42-.78 2.33 1.82 4.51 5.71 4.98l793.78 90.06c.52 0 1.3.16 1.82 0l664.3-35.78c3.89-.15 6.74-2.33 6.48-4.51-.26-2.33-3.63-4.04-7.52-3.89l-663.26 35.62-792.75-89.9h-1.55z"/><path d="M4334.08 1108.47h-.51l-680.13 26.75c-1.3 0-2.34.31-3.37.62-3.38 1.25-7.01 2.8-10.9 4.36-22.58 9.64-53.72 22.71-107.17 15.4-3.89-.47-7.53.93-8.31 3.11-.77 2.33 1.56 4.51 5.19 4.98 59.69 8.09 95.24-6.85 118.59-16.8 3.12-1.25 5.97-2.49 8.82-3.58l678.31-26.44c3.9-.16 6.75-2.18 6.49-4.51-.26-2.18-3.37-3.89-7.01-3.89zm-211.48 152.91h-.26l-210.71 5.44c-3.89.15-7 2.02-6.74 4.35.26 2.34 3.37 4.2 7.26 4.05l210.71-5.45c3.89-.15 7.01-2.02 6.75-4.35 0-2.33-3.12-4.04-7.01-4.04zm21.8-429.797c-1.04 0-2.08.156-3.12.467-3.37 1.089-4.93 3.577-3.11 5.6 1.56 2.022 3.63 3.733 5.19 5.288 5.97 5.6 8.3 7.622-3.89 15.556-20.5 13.066-50.6 46.821-51.9 48.221-1.82 2.022-.52 4.666 2.85 5.755 3.38 1.089 7.79.311 9.6-1.711.26-.311 30.62-34.221 49.83-46.354 18.42-11.667 13.75-18.356 5.71-25.822-1.56-1.4-3.12-2.8-4.42-4.511-1.55-1.556-4.15-2.489-6.74-2.489z"/><path d="M3879.72 663.275c-2.6 0-5.19.934-6.49 2.489L3477.5 1210.04c-.25.47-.51 1.09-.51 1.71v171.27c0 2.33 3.11 4.2 7 4.2s7.01-1.87 7.01-4.2v-170.33l394.94-543.504c1.56-2.177 0-4.666-3.63-5.599-.78-.156-1.82-.312-2.59-.312zm-123-48.843c-2.6 0-5.19.933-6.49 2.489-15.57 21.311-381.71 522.499-401.43 554.229-19.2 30.8-10.64 138.45-9.34 152.91l-248.6 213.11c-2.33 1.87-1.55 4.51 1.82 5.91 3.11 1.4 7.53.93 9.86-1.09l250.15-214.35c.78-.78 1.3-1.71 1.3-2.64 0-1.25-10.9-120.25 8.3-151.05 19.72-31.42 397.28-548.474 401.18-553.762 1.55-2.178 0-4.667-3.64-5.6-1.3-.156-2.33-.156-3.11-.156z"/><path d="M3407.18 625.01c-2.59 0-4.93.778-6.22 2.178l-657.55 708.852c-1.82 2.02-.78 4.67 2.85 5.76 3.37 1.08 7.78.46 9.6-1.72l654.44-705.582 549.6 137.509c3.63.933 7.78-.156 9.08-2.333 1.56-2.178-.26-4.667-3.89-5.445l-555.31-139.064c-.78 0-1.82-.155-2.6-.155z"/><path d="M3596.09 538.522c-2.85 0-5.45.934-6.48 2.645l-438.02 632.013c0 .15-.26.31-.26.31l-31.92 61.13-265.72 249.51c-13.49-4.67-52.16-20.07-111.32-60.51-82.78-56.47-49.3-158.98-45.15-170.49 5.71-16.02 95.75-112.46 174.89-197.71 65.4-70.307 127.41-136.572 140.13-155.549 27.5-41.066 239.77-160.997 262.34-168.775 3.38-1.244 4.42-3.733 2.6-5.755-2.08-2.022-6.23-2.645-9.6-1.556-23.36 8.089-239.25 129.264-268.32 172.975-12.45 18.51-73.95 84.62-139.34 154.62-83.82 89.91-170.49 182.77-176.46 200.04-4.15 11.98-38.92 118.22 48.53 177.8 76.81 52.42 119.88 63.93 121.7 64.39 3.11.78 6.75.16 8.82-1.55l269.09-253.24.78-.93 32.18-61.6 438.02-631.857c1.56-2.177-.26-4.666-3.89-5.444-.78-.311-1.82-.467-2.6-.467z"/><path d="M2917.01 994.135c-2.6 0-5.19.934-6.49 2.334-1.56 2.177-.26 4.671 3.37 5.601l302.31 85.86 146.09 70.62c.78.47 1.82.63 2.86.78l144.01 18.98c3.9.47 7.53-.93 8.31-3.27.78-2.33-1.56-4.51-5.45-4.98l-142.46-18.82-145.58-70.31c-.52-.15-.77-.31-1.29-.46l-303.09-86.024c-.52-.155-1.56-.311-2.59-.311zm80.7-89.754c-2.86 0-5.45 1.089-6.49 2.8-1.3 2.178.52 4.667 4.15 5.445l607.47 136.424c3.63.77 7.78-.32 9.08-2.49 1.3-2.18-.52-4.67-4.15-5.45L3000.3 904.692c-1.04-.155-1.82-.311-2.59-.311zm122.74-96.597c-2.86 0-5.45 1.089-6.49 2.645-1.3 2.177.52 4.666 4.15 5.444l559.98 129.108c3.63.778 7.79-.311 9.08-2.488 1.3-2.178-.52-4.667-4.15-5.445L3123.04 807.94c-.78-.156-1.56-.156-2.59-.156zm-410 412.056c-2.33 0-4.67.62-5.97 1.87-2.07 2.02-1.29 4.51 2.08 5.75l728.39 283.11c3.11 1.24 7.27.78 9.34-.93l31.92-24.89c2.33-1.87 1.82-4.51-1.3-5.91-3.11-1.4-7.52-1.09-9.86.77l-28.02 21.78-722.95-280.93c-.77-.46-2.07-.62-3.63-.62z"/><path d="M2906.37 1302.28c-2.6 0-4.93.78-6.23 2.18l-20.76 23.02c-1.82 2.03-.52 4.67 2.85 5.76 3.38 1.09 7.79.31 9.6-1.71l20.76-23.02c1.82-2.03.52-4.67-2.85-5.76-1.04-.31-2.08-.47-3.37-.47zm200.06 71.4c-2.33 0-4.67.63-5.96 2.03l-41.78 39.51c-2.08 2.02-1.04 4.51 2.07 5.75 3.38 1.25 7.53.62 9.6-1.24l41.78-39.51c2.08-2.03 1.04-4.51-2.07-5.76-1.04-.62-2.34-.78-3.64-.78zm240.03-59.88c-3.37 0-6.23 1.4-7 3.42-.78 2.33 1.81 4.51 5.7 4.98l182.69 20.06 201.1 72.49c3.12 1.09 7.27.62 9.34-1.09l39.71-33.29c2.33-1.86 1.55-4.51-1.56-5.91-3.12-1.4-7.53-.93-9.86.93l-36.07 30.18-196.7-70.93c-.77-.31-1.55-.47-2.33-.47l-183.98-20.22c-.26-.15-.52-.15-1.04-.15zM2500.78 19.133c-2.07 0-4.15.622-5.45 1.555-2.33 1.867-1.81 4.511 1.04 5.911 12.2 5.756 1217.79 578.188 1278.77 605.877 55.27 25.044 111.84 43.866 163.74 54.132 44.11 8.866 389.5 76.065 392.87 76.687 3.63.778 7.78-.466 8.82-2.644 1.3-2.178-.78-4.667-4.41-5.289-3.37-.622-348.75-67.976-392.87-76.687-50.6-10.111-105.61-28.466-159.59-52.888-60.98-27.688-1266.57-599.965-1278.77-605.72-1.29-.623-2.59-.934-4.15-.934z"/><path d="M4334.09 244.995c-2.86 0-5.45.933-6.49 2.645l-285.44 410.347c-36.59-8.556-217.97-51.177-238.73-56.932-21.54-5.911-77.07-31.889-98.35-44.955-10.38-6.378-18.94-11.511-26.73-15.866-8.56-4.667-15.57-7.778-23.35-10.422l-1.04-.312c-13.75-4.666-20.76-7.155-8.82-22.243 10.38-13.222 36.59-45.266 59.68-58.644 22.06-12.911 67.47-53.043 69.28-54.754 2.08-1.867 1.3-4.511-1.81-5.911-3.12-1.245-7.53-.778-9.86 1.089-.52.466-46.45 41.066-67.47 53.51-23.87 13.844-49.56 44.332-62.54 61.132-16.09 20.533-3.37 26.91 14.79 33.132l1.04.312c6.75 2.333 12.98 5.133 20.76 9.333 7.53 4.044 15.83 9.177 25.95 15.399 20.5 12.756 77.85 40.133 102.76 46.822 23.35 6.377 236.65 56.465 245.74 58.643 3.63.778 7.52-.156 9.08-2.333l288.03-414.236c1.56-2.178-.26-4.667-3.89-5.445-.78-.311-1.82-.311-2.59-.311z"/><path d="M3941.22 34.688c-3.12 0-5.97 1.245-6.75 3.111-1.82 3.578-170.23 353.104-184.24 374.415-2.85 4.2-2.59 8.4.52 12.444 10.9 14.156 56.05 23.644 89.01 30.644 9.34 1.867 17.12 3.578 22.05 4.978 9.34 2.489 21.54 7.777 35.81 13.844 22.84 9.644 50.86 21.777 81.74 28.777 48.53 10.889 349.54 75.599 352.65 76.221 3.63.778 7.78-.311 9.08-2.489 1.3-2.178-.52-4.667-4.15-5.444-3.11-.623-304.12-65.177-352.39-76.065-29.06-6.534-56.57-18.356-78.62-27.689-14.8-6.377-27.51-11.822-38.15-14.622-5.45-1.4-13.75-3.266-23.09-5.133-26.99-5.6-72.4-15.244-80.97-26.133-1.55-2.022-1.55-3.889-.26-5.911 14.02-22.088 177.5-361.037 184.5-375.503 1.04-2.178-1.04-4.511-4.93-5.289-.52 0-1.29-.156-1.81-.156z"/><path d="M3756.72 417.97c-2.86 0-5.45.933-6.49 2.644l-82.78 121.175c-1.55 2.178.26 4.667 3.9 5.445 3.63.933 7.78-.156 9.08-2.334l82.78-121.175c1.55-2.178-.26-4.666-3.9-5.444-1.03-.156-1.81-.311-2.59-.311zm0 76.531c-2.34 0-4.93.778-6.23 2.178l-56.57 60.354c-1.82 2.022-.78 4.667 2.6 5.755 3.37 1.089 7.78.467 9.6-1.555l56.57-60.354c1.81-2.023.77-4.667-2.6-5.756-1.04-.466-2.33-.622-3.37-.622zm131.56-33.755c-1.3 0-2.6.155-3.89.622-28.29 10.888-107.17 120.086-116 132.53-1.55 2.178 0 4.667 3.64 5.6 3.63.934 7.78 0 9.34-2.177 32.95-46.044 92.12-121.642 110.8-128.798 3.37-1.244 4.15-3.889 2.08-5.755-1.3-1.4-3.64-2.022-5.97-2.022zm35.81 145.13c-2.34 0-4.41.623-5.71 1.712l-23.09 19.133c-2.34 1.866-1.56 4.511 1.55 5.911 3.12 1.4 7.53.933 9.86-.934l20.24-16.644 136.5 24.733c3.63.622 7.52-.622 8.82-2.8 1.04-2.178-1.04-4.511-4.67-5.289l-141.43-25.51c-.77-.312-1.29-.312-2.07-.312zm25.43-120.552c-2.6 0-4.93.778-6.23 2.178l-48.52 53.354c-1.82 2.023-.52 4.667 2.85 5.756 3.37 1.089 7.79.311 9.6-1.711l48.27-53.355c1.81-2.022.52-4.666-2.86-5.755a10.725 10.725 0 00-3.11-.467zm43.08 11.666c-2.6 0-5.19.934-6.49 2.489l-36.59 48.999c-1.56 2.178 0 4.667 3.63 5.6 3.64.933 7.79 0 9.34-2.178l36.59-48.999c1.56-2.178 0-4.666-3.63-5.6-1.04-.155-1.82-.311-2.85-.311zm112.35-462.302c-2.85 0-5.7 1.09-6.74 2.8l-225.5 377.215c-1.3 2.178.52 4.667 4.15 5.444 3.63.778 7.79-.311 9.08-2.489l225.76-377.37c1.3-2.177-.52-4.666-4.15-5.444-1.04 0-1.82-.156-2.6-.156zm140.39 6.222c-2.86 0-5.19.934-6.49 2.489l-314.24 437.724c-1.56 2.178 0 4.667 3.63 5.6 3.63.934 7.79 0 9.34-2.177l314.25-437.88c1.55-2.178 0-4.667-3.64-5.6-.77-.156-1.81-.156-2.85-.156z"/><path d="M4155.3 372.393c-2.86 0-5.71 1.088-6.75 2.955l-47.75 88.665-88.48-24.888c-1.82-.467-3.9-.467-5.71-.156-1.82.467-3.12 1.244-3.89 2.333l-35.04 53.977c-1.29 2.178.26 4.667 3.9 5.444 3.63.778 7.78-.155 9.08-2.333l32.18-49.777 89 25.044c1.82.467 3.89.467 5.71 0 1.82-.466 3.37-1.4 3.89-2.644l50.34-93.332c1.3-2.177-.77-4.666-4.41-5.288-.52.155-1.3 0-2.07 0z"/><path d="M3810.69 302.705c-2.85 0-5.71 1.088-6.75 2.955-1.29 2.178.78 4.667 4.42 5.289l424.52 84.465c3.64.778 7.79-.467 8.83-2.645 1.29-2.177-.78-4.666-4.42-5.288l-424.26-84.621c-.78-.155-1.56-.155-2.34-.155z"/><path d="M4349.66 117.442c-.78 0-1.56.155-2.34.311-52.94 11.822-99.64 67.354-124.56 97.22-3.37 4.045-6.48 7.778-9.08 10.733-21.28 24.267-149.98 235.04-155.43 244.062-1.3 2.178.52 4.667 4.15 5.444 3.63.778 7.78-.311 9.08-2.488 1.3-2.178 133.9-219.174 154.66-242.973 2.59-2.956 5.71-6.689 9.08-10.889 24.13-29.088 69.02-82.754 117.03-93.331 3.63-.778 5.45-3.267 4.15-5.445-1.3-1.711-3.89-2.644-6.74-2.644zm-284.15 235.973c-3.11 0-5.97 1.244-6.75 3.111-15.31 33.133-38.92 83.376-41.77 88.354 0 .155-.26.155-.26.311-1.56 2.178 0 4.666 3.37 5.6 1.82.466 4.15.466 5.97 0 3.89-1.089 3.89-1.089 25.43-47.444l20.76-44.488c1.04-2.177-1.04-4.511-4.93-5.133-.52-.311-1.3-.311-1.82-.311zm268.57 33.755c-2.85 0-5.44 1.089-6.48 2.8l-99.13 162.242c-1.3 2.177.52 4.666 4.15 5.444 3.64.778 7.79-.311 9.09-2.489l98.86-162.241c1.3-2.178-.52-4.667-4.15-5.444-.78-.156-1.56-.312-2.34-.312zM3715.2 34.688c-3.89 0-7.01 1.867-7.01 4.045 0 2.333-12.45 227.106-15.05 257.284-2.59 28.31-23.87 62.998-25.69 66.109l-133.89 151.975c-1.82 2.022-.52 4.667 2.85 5.755 3.37 1.089 7.78.312 9.6-1.711l134.16-152.285c.26-.156.26-.312.26-.467 1.04-1.556 24.13-37.955 26.73-68.91 2.59-30.333 15.05-255.261 15.05-257.44.26-2.332-2.86-4.199-7.01-4.355 0 0 .26 0 0 0zm-480.58 0c-3.89 0-7 2.023-7 4.356l8.3 265.528-226.8-98.309c-3.11-1.4-7.52-.934-9.86.933-2.33 1.867-1.55 4.511 1.56 5.911l238.21 103.287c2.08.933 4.93 1.089 7.27.311 2.33-.778 3.89-2.178 3.89-3.889l-8.3-273.928c-.26-2.333-3.38-4.2-7.27-4.2z"/><path d="M2990.96 108.42c-3.63 0-6.75 1.711-7.01 3.889-.26 2.333 2.6 4.355 6.49 4.511 10.38.466 257.93 12.911 323.84 9.022 64.1-3.733 158.29 9.955 159.33 10.111 3.89.622 7.53-.778 8.57-3.111 1.03-2.334-1.3-4.511-5.19-5.134-3.9-.622-97.57-14.155-164-10.266-64.62 3.733-318.66-8.867-321.25-9.022h-.78z"/><path d="M3137.83 114.643c-3.63 0-6.74 1.711-7 3.888l-21.02 139.375c-.26 2.334 2.59 4.356 6.48 4.511 3.9.156 7.27-1.555 7.53-3.888l21.02-139.375c.26-2.334-2.6-4.356-6.49-4.511h-.52zm-254.04-95.51c-.52 0-1.04 0-1.56.155-3.89.467-6.22 2.8-5.19 4.978l49.05 127.553c.78 2.333 4.67 3.733 8.3 3.111 3.89-.467 6.23-2.8 5.19-4.978l-49.04-127.553c-.78-1.866-3.64-3.266-6.75-3.266zm-405.58 842.472c-1.3 0-2.86.311-3.9.778l-88.48 36.399c-1.3.622-2.34 1.4-2.86 2.333l-25.43 57.399c0 .156 0 .311-.26.467l-86.67 336.769c-.26.93 0 1.87.78 2.8l17.39 17.89c2.07 2.02 6.22 2.64 9.6 1.56 3.37-1.25 4.41-3.74 2.59-5.76l-16.09-16.49 86.16-335.058 24.65-55.688 84.07-34.533 363.29 42.466c3.89.467 7.53-1.089 8.3-3.266.78-2.334-1.81-4.511-5.45-4.978l-366.14-42.933c-.52-.155-1.04-.155-1.55-.155z"/><path d="M3073.74 687.386c-2.34 0-4.67.622-5.97 2.022L2755.6 984.646l-162.44-51.643c-3.37-1.089-7.79-.311-9.6 1.711-1.82 2.022-.52 4.667 2.85 5.756l168.41 53.51c3.12 1.088 7.27.466 9.34-1.4l315.55-298.661c2.07-2.022 1.03-4.511-2.08-5.755-1.3-.467-2.6-.778-3.89-.778z"/><path d="M3096.31 372.393c-2.85 0-5.7 1.088-6.74 2.955L2990.96 557.5 2694.1 970.18c-1.55 2.178 0 4.667 3.64 5.6 3.63.934 7.78 0 9.34-2.177l297.11-412.836c0-.156.26-.312.26-.312l98.61-182.463c1.3-2.177-.78-4.666-4.41-5.288-.78-.156-1.56-.311-2.34-.311z"/><path d="M2409.18 742.452c-3.11 0-5.97 1.245-6.75 3.267-1.03 2.333 1.3 4.511 5.19 5.133l524.7 77.31c3.89.622 7.52-.778 8.56-3.111 1.04-2.334-1.3-4.512-5.19-5.134L2411 742.608c-.78-.156-1.3-.156-1.82-.156z"/><path d="M2400.62 34.688c-1.56 0-3.12.312-4.67.934-2.86 1.555-3.38 4.2-.78 5.91 1.3.779 121.96 85.555 176.45 125.998 40.74 30.022 54.24 61.132 41.26 95.354-8.56 22.399-118.85 476.612-123.52 495.901-.52 2.333 2.08 4.511 5.97 4.822 3.89.311 7.53-1.244 8.05-3.578 1.03-4.666 114.95-473.19 123.25-495.279 14.02-36.865-.52-70.465-43.85-102.509-54.75-40.443-175.42-125.22-176.71-126.153-1.56-.933-3.38-1.4-5.45-1.4z"/><path d="M2400.62 99.554c-.52 0-1.3 0-1.82.155-3.63.622-5.97 2.956-4.93 5.133l61.76 137.664c.78 1.556 2.85 2.645 5.45 3.111l445.8 55.222 107.17 16.177c3.9.622 7.53-.778 8.57-3.111 1.03-2.333-1.3-4.511-5.19-5.133L2910 292.439l-441.92-54.599-60.72-135.175c-.77-1.867-3.63-3.111-6.74-3.111z"/><path d="M2449.66 99.554c-.52 0-1.3 0-1.81.155-3.64.622-5.97 2.956-4.93 5.133l63.05 143.886c1.04 2.178 4.93 3.578 8.56 2.956 3.64-.622 5.97-2.956 4.94-5.133l-63.06-143.886c-.78-1.867-3.63-3.111-6.75-3.111zm274.54 77.776c-3.37 0-6.48 1.555-7 3.577l-23.36 89.443c-.52 2.333 2.08 4.511 5.97 4.822 3.89.311 7.53-1.244 8.05-3.578l23.35-89.442c.52-2.334-2.08-4.511-5.97-4.822h-1.04zm-52.67 0h-1.3l-67.99 6.999c-3.89.467-6.48 2.645-5.71 4.823.78 2.333 4.16 3.888 8.05 3.422l67.99-7c3.89-.467 6.48-2.645 5.7-4.822-.51-2.022-3.37-3.422-6.74-3.422zM2481.06 40.91c-1.04 0-2.08.156-2.85.311-3.64.934-5.19 3.422-3.64 5.6l31.92 41.844c1.56 2.177 5.71 3.11 9.34 2.177 3.64-.933 5.19-3.422 3.64-5.6L2487.81 43.4c-1.3-1.711-3.9-2.489-6.75-2.489zm-256.9 0c-1.55 0-3.37.311-4.67 1.089-2.85 1.555-3.11 4.2-.52 5.911l103.28 69.221c2.6 1.711 7.01 1.866 9.86.311 2.86-1.556 3.12-4.2.52-5.911l-103.28-69.22c-1.55-.934-3.37-1.4-5.19-1.4zm242.37 646.476c-3.37 0-6.23 1.4-7.01 3.422-.78 2.333 1.82 4.511 5.71 4.978l46.19 5.133c3.89.467 7.53-1.089 8.31-3.422.77-2.334-1.82-4.511-5.71-4.978l-46.19-5.133h-1.3z"/><path d="M2242.85 457.169c-1.82 0-3.89.466-5.19 1.4l-782.63 507.567c-2.59 1.711-2.33 4.356.52 5.911 2.86 1.556 7.27 1.4 9.86-.311l779.77-505.701c68.77 9.333 815.32 111.065 850.61 113.087 49.83 2.8 85.64-9.489 100.95-34.844l2.85-4.666c16.61-27.378 25.69-44.644 13.49-52.266-5.44-3.422-13.75-4.044-24.91-2.022-29.58 5.444-111.06-11.356-140.12-18.355-3.63-.934-7.79.155-9.08 2.333-1.56 2.178.26 4.666 3.89 5.444 4.41 1.089 109.24 25.977 149.47 18.511 5.19-.933 9.34-1.089 10.63-.311 7.01 4.355-7.26 27.999-16.6 43.554l-2.86 4.667c-16.35 27.377-56.05 30.955-86.41 29.244-35.29-2.022-844.64-112.309-852.68-113.398-.52.156-1.04.156-1.56.156z"/><path d="M2579.15 417.97c-3.38 0-6.49 1.555-7.01 3.733-.52 2.333 2.08 4.355 5.97 4.666l94.71 7.467v30.955c0 2.022 2.6 3.889 5.97 4.2l61.76 5.444-23.35 49.932c-1.04 2.178 1.04 4.511 4.93 5.134 3.63.622 7.52-.623 8.56-2.956l25.43-54.599c.52-1.244.26-2.489-.78-3.422-1.04-1.089-2.85-1.711-4.93-1.867l-63.83-5.599v-31.111c0-2.178-2.6-3.889-6.23-4.2l-100.68-7.933c0 .311-.26.156-.52.156zm252.74 24.732c-2.33 0-4.67.778-5.97 2.022-2.07 2.022-1.03 4.511 2.34 5.756l61.76 22.399c-39.96 71.088-39.44 71.554-37.37 73.577 1.04 1.088 2.6 1.866 4.67 2.022 3.9.466 7.53-.934 8.31-3.267 0-.311.26-.467.26-.778 2.07-4.977 24.91-46.665 39.44-72.331 1.04-1.867-.26-3.889-3.12-4.978l-66.68-23.8c-1.3-.466-2.6-.622-3.64-.622zm31.4 98.62c-.78-.466-1.82-.777-3.11-.933 1.29.156 2.33.467 3.11.933zm-612.66-203.151c-3.37 0-6.23 1.4-7 3.423-.78 2.333 1.81 4.511 5.44 4.977l813.25 94.421c3.89.466 7.52-1.089 8.3-3.267.78-2.333-1.81-4.511-5.45-4.978l-813.24-94.42c-.52-.156-1.04-.156-1.3-.156zm-123.77 13.689c-1.3 0-2.6.155-3.64.622l-237.95 86.487c-.78.311-1.56.778-2.08 1.245-.52.466-58.38 51.176-91.34 67.198-33.47 16.333-111.84 52.888-112.62 53.199-3.11 1.4-3.63 4.045-1.29 5.911 2.33 1.867 6.74 2.178 9.86.778.78-.311 79.14-37.021 112.88-53.354 32.69-15.867 85.37-61.444 93.15-68.132l236.66-86.021c3.37-1.244 4.41-3.733 2.33-5.755-1.29-1.4-3.63-2.178-5.96-2.178zm-42.56-61.132h-1.3l-171 17.888c-1.56.156-3.12.622-4.15 1.556l-297.64 218.084-376.78 285.128c-2.34 1.866-1.82 4.511 1.04 5.911 3.11 1.4 7.52 1.088 9.86-.623l376.78-285.127 296.08-216.685 168.41-17.733c3.89-.466 6.48-2.644 5.71-4.822-.52-2.177-3.64-3.577-7.01-3.577zM1905.25 28.155c-1.56 0-3.37.311-4.67 1.09-1.3.777-140.9 72.798-176.71 89.753-40.48 19.133-38.67 39.51-23.62 64.087 15.05 24.578 120.15 99.709 124.56 102.976 2.59 1.711 7 2.022 9.86.467 2.85-1.556 3.37-4.2.78-5.911-1.04-.778-107.95-77.154-122.22-100.331-13.76-22.4-15.05-38.422 18.94-54.599 35.81-16.956 175.67-89.287 177.23-89.91 2.86-1.555 3.38-4.2.78-5.91-1.04-1.245-3.11-1.712-4.93-1.712z"/><path d="M1655.88 34.688c-1.56 0-3.37.312-4.67 1.09-2.86 1.555-3.38 4.2-.78 5.91l204.22 142.642c2.59 1.711 7 2.022 9.86.467 2.85-1.556 3.37-4.2.78-5.911L1661.33 36.244c-1.3-1.089-3.38-1.556-5.45-1.556zm-144.54-6.533c-2.33 0-4.41.622-5.71 1.711l-172.3 139.842-189.94-93.332c-3.12-1.4-7.53-1.244-9.87.623-2.33 1.866-2.07 4.51 1.04 5.91l195.66 96.132c1.56.778 3.37 1.089 5.45.933 1.81-.155 3.63-.777 4.67-1.711l170.48-138.441c15.31 13.688 49.83 40.599 86.16 66.421 79.66 56.465 95.23 55.998 100.94 55.843 3.89-.156 6.74-2.178 6.74-4.356-.26-2.333-3.37-4.044-7.26-4.044-5.71-.155-31.4-11.511-90.3-53.354-41.26-29.244-79.67-59.888-89.53-69.999-1.3-1.244-3.37-2.022-5.71-2.022-.26-.156-.52-.156-.52-.156z"/><path d="M1264.57 34.688c-2.08 0-3.9.467-5.45 1.4-2.6 1.712-2.08 4.356.78 5.911l145.83 75.443c2.85 1.556 7.27 1.245 9.86-.466 2.6-1.711 2.08-4.356-.78-5.911l-145.83-75.288c-1.3-.777-2.86-1.089-4.41-1.089zm127.41 0c-2.08 0-3.9.467-5.45 1.556-2.6 1.711-2.08 4.355.78 5.911l68.24 34.844c2.86 1.555 7.53 1.244 9.86-.467 2.6-1.711 2.08-4.355-.78-5.91l-68.24-34.845c-1.3-.777-2.86-1.089-4.41-1.089zM2968.9 1667.83c-1.55 0-3.11.31-4.41.94l-96.27 46.35-58.9 4.67c-3.9.31-6.49 2.49-5.97 4.66.52 2.34 3.89 3.89 7.78 3.58l60.98-4.82c1.3-.16 2.6-.47 3.38-.93l95.23-45.89 25.43 3.42c3.89.47 7.52-.93 8.3-3.27.78-2.33-1.55-4.51-5.45-4.97l-28.8-3.89c-.52.31-1.04.15-1.3.15zm-436.2-327.28c-.52 0-1.04 0-1.82.16-3.89.62-5.97 2.8-5.19 5.13.26.78.78 1.71 1.56 2.8 2.08 3.58 5.19 8.87 1.82 12.75-2.6 2.8-8.57 4.83-17.91 6.07-36.85 4.98-153.62 15.87-154.66 16.02-1.29.16-2.59.47-3.63.94l-92.38 49c-2.85 1.55-3.11 4.2-.52 5.91 2.6 1.71 7.01 1.86 9.86.31l90.83-48.22c16.34-1.56 118.58-11.05 153.62-15.87 13.23-1.87 22.31-5.29 26.98-10.27 6.49-7.15 1.82-15.24-.78-19.6-.52-.77-1.03-1.55-1.03-2.02-.78-1.86-3.64-3.11-6.75-3.11zm-205.26-108.42c-1.81 0-3.37.31-4.67 1.09-2.85 1.55-3.11 4.2-.52 5.91l53.98 35.31c2.59 1.71 7 1.87 9.86.31 2.85-1.55 3.11-4.2.52-5.91l-53.98-35.31c-1.3-.93-3.37-1.4-5.19-1.4z"/><path d="M2409.18 1253.75c-1.56 0-3.11.31-4.41.94l-73.18 35.77c-.26.16-.52.16-.52.31l-53.45 32.51-11.94-8.08c-2.59-1.72-6.74-1.87-9.6-.47l-89.78 44.18c-2.86 1.4-3.38 4.04-1.04 5.75l193.06 151.82c2.34 1.87 6.75 2.18 9.86.78 3.12-1.4 3.63-4.05 1.3-5.91l-189.17-148.71 79.14-38.89 12.46 8.4c1.3.93 3.11 1.4 5.19 1.4 1.82 0 3.89-.47 5.19-1.24l58.39-35.63 67.2-32.66 51.12 43.09c-4.67 9.95-22.57 53.82 2.34 72.17 2.33 1.87 6.75 2.03 9.86.63 3.11-1.4 3.37-4.05 1.04-5.92-18.95-14.15-5.45-52.73 1.29-66.42.52-1.24.26-2.64-1.03-3.57l-57.35-48.54c-1.04-.93-2.85-1.55-4.67-1.71h-1.3zm807.54 799.39h-1.3l-467.08 47.6c-.78 0-1.3.15-2.08.46-.52.16-57.87 17.58-117.29 22.56-61.5 5.13-275.84 23.02-275.84 23.02l1.82 8.4s214.34-17.89 275.84-23.02c58.12-4.83 112.61-20.69 120.66-23.02l466.04-47.6c3.9-.47 6.49-2.65 5.71-4.83 0-2.17-3.11-3.57-6.48-3.57z"/><path d="M1655.88 1187.18c-1.56 0-3.11.31-4.41.93-3.12 1.55-3.38 4.2-1.04 5.91l786.78 567.77 162.18 171.73 182.68 213.41c1.82 2.03 5.97 2.96 9.34 1.87 3.38-1.09 4.93-3.58 3.12-5.6l-182.95-213.57-162.44-172.2c-.26-.15-.52-.47-.78-.62l-787.29-568.08c-1.04-1.09-3.11-1.55-5.19-1.55zm1362.59 886.18c-.52 0-1.3 0-1.82.15-3.63.63-5.97 2.96-4.93 5.14l37.62 84.15c1.04 2.18 4.94 3.58 8.57 2.96 3.63-.63 5.97-2.96 4.93-5.14l-37.63-84.15c-.78-1.87-3.63-3.11-6.74-3.11z"/><path d="M2700.59 1635.01c-1.56 0-3.12.31-4.41.93l-629.53 303.02c-3.11 1.4-3.63 4.05-1.04 5.91 2.34 1.87 6.75 2.18 9.86.62L2705 1642.48c3.11-1.4 3.63-4.05 1.04-5.91-1.3-1.09-3.38-1.56-5.45-1.56z"/><path d="M1766.16 1452.86c-1.56 0-3.11.31-4.41.93-2.85 1.56-3.37 4.2-.78 5.91l528.33 377.69c2.59 1.71 7 2.02 9.86.46 2.85-1.55 3.37-4.2.77-5.91l-528.32-377.53c-1.3-1.08-3.37-1.55-5.45-1.55z"/><path d="M2466.53 1460.48c-1.56 0-3.12.31-4.41.93l-616.81 294.78c-3.12 1.4-3.64 4.04-1.04 5.91 2.33 1.86 6.75 2.18 9.86.62l616.81-294.77c3.11-1.4 3.63-4.05 1.04-5.91-1.3-.94-3.38-1.56-5.45-1.56zm-259.75-74.04c-1.56 0-3.11.31-4.67.93l-510.94 261.02c-2.85 1.55-3.37 4.2-.78 5.91 2.6 1.71 7.01 2.02 9.86.47l510.94-260.87c2.86-1.55 3.37-4.19.78-5.91-1.3-1.08-3.37-1.55-5.19-1.55zm-570.62-4.67c-.78 0-1.82.16-2.6.31-3.63.94-5.19 3.43-3.89 5.45.26.46 28.03 40.29 34.25 56.31 6.23 16.17 15.31 51.8 15.31 52.11.52 2.33 4.16 3.89 8.05 3.58 3.89-.32 6.49-2.49 5.97-4.83-.26-1.4-9.35-36.24-15.57-52.73-6.49-16.8-33.74-56-35.03-57.71-1.04-1.55-3.64-2.49-6.49-2.49zM949.804 655.498c-2.595 0-4.93.778-6.228 2.333-1.816 2.023-.519 4.667 3.114 5.6l352.13 108.109 484.47 215.285 146.09 95.045 235.36 178.73c2.34 1.86 6.75 2.17 9.86.62 3.12-1.4 3.63-4.05 1.04-5.91l-235.36-178.89c0-.15-.26-.15-.26-.31l-146.87-95.352c-.26-.155-.52-.311-1.04-.467L1306.86 764.54c-.26-.155-.52-.311-1.03-.311L953.177 655.965c-1.038-.311-2.335-.467-3.373-.467zm863.586 455.462c-1.56 0-3.11.31-4.41.93-3.12 1.55-3.37 4.2-1.04 5.91l265.98 193.97c2.59 1.87 7.01 2.03 9.86.63 3.11-1.56 3.37-4.2 1.04-5.91l-265.98-193.82c-1.3-1.25-3.37-1.71-5.45-1.71z"/><path d="M2354.43 979.514h-1.04l-147.65 14.622c-1.3.155-2.34.466-3.37.933l-481.88 242.661c-2.85 1.56-3.37 4.2-.78 5.91 2.6 1.71 7.01 2.02 9.86.47l368.48-185.58 76.03 69.07c1.04.93 2.86 1.71 4.67 1.87l229.13 21.15c1.82.16 3.64-.15 5.19-.78 1.56-.62 2.6-1.71 2.86-2.8 6.49-28 36.59-45.88 56.57-57.55 4.93-2.8 9.08-5.29 11.93-7.47 15.83-11.2 19.72-23.49 11.42-34.69-7.01-9.17-107.17-53.506-137.53-66.883-1.04-.778-2.59-.933-3.89-.933zm-144.8 22.706l142.98-14.151c60.98 26.751 126.11 57.091 130.79 62.531 5.96 8.09 2.85 17.27-9.35 25.82-2.59 1.87-6.48 4.2-11.15 6.85-18.95 11.2-50.35 29.71-59.43 58.17l-219.27-20.22-75.25-68.29 100.68-50.71z"/><path d="M2230.91 1082.18c-3.11 0-6.23 1.4-6.75 3.26-.77 2.34 1.56 4.52 5.45 4.98l199.81 25.98c3.89.47 7.53-.93 8.31-3.27.77-2.33-1.56-4.51-5.45-4.98l-199.81-25.97h-1.56zm169.71-362.75c-1.04 0-2.34.155-3.38.466L2165 795.65c-2.34.778-3.63 2.178-3.63 3.889l2.07 41.533c0 2.022 2.6 3.733 5.97 4.044l186.58 16.644c3.89.311 7.52-1.244 8.04-3.578.52-2.333-2.08-4.511-5.97-4.822l-180.86-16.177-1.56-35.311 228.61-74.509c3.37-1.089 4.67-3.733 2.86-5.756-1.56-1.4-3.9-2.177-6.49-2.177z"/><path d="M934.753 570.099c-2.595 0-5.19.933-6.487 2.489-1.557 2.178 0 4.667 3.633 5.6l93.161 25.044 343.82 115.575.26.156c3.89 1.089 380.16 110.598 429.2 125.686 7.01 2.178 13.75 4.2 19.98 6.222 40.48 12.6 67.21 21 87.97 19.133 21.28-1.866 272.2-21.933 274.8-22.088 3.89-.311 6.49-2.489 5.97-4.667-.52-2.333-4.15-3.889-7.79-3.578-2.59.156-253.52 20.222-274.8 22.089-16.35 1.4-42.81-6.844-79.4-18.2-6.49-2.022-12.98-4.044-19.98-6.222-48.79-14.933-419.08-122.731-429.2-125.686l-343.83-115.576c-.26 0-.26-.155-.52-.155l-93.413-25.2c-1.557-.466-2.595-.622-3.374-.622z"/><path d="M2294.49 545.989c-1.82 0-3.9.467-5.19 1.4l-269.61 179.508c-1.04.777-1.82 1.711-1.82 2.644l-7.27 127.864c-.26 2.333 2.86 4.2 6.75 4.356 3.89.155 7.01-1.711 7.27-4.045l7-126.308 268.06-178.419c2.59-1.711 2.33-4.355-.52-5.911-1.3-.778-2.86-1.089-4.67-1.089z"/><path d="M1115.1 528.567c-2.6 0-5.19.933-6.49 2.489-1.55 2.177 0 4.666 3.38 5.6L2165.52 827.85c3.63.933 7.78 0 9.34-2.022 1.56-2.178 0-4.667-3.37-5.6L1118.21 529.034a10.691 10.691 0 00-3.11-.467zm780.29 333.038c-1.82 0-3.63.467-4.93 1.244-2.86 1.711-2.86 4.356 0 5.911 19.46 11.667 20.76 15.711 8.82 27.222-14.27 13.533-115.73 84.154-116.77 84.776-2.6 1.711-2.34 4.355.78 5.911 2.85 1.555 7.26 1.4 9.86-.467 4.15-2.955 103.28-71.709 118.07-85.865 17.12-16.488 10.38-24.888-10.9-37.643-1.3-.622-3.12-1.089-4.93-1.089z"/><path d="M1957.15 692.675c-2.6 0-4.93.778-6.23 2.334-.26.155-15.83 18.666-37.89 30.643-24.91 13.533-30.87 19.444-34.25 33.444-3.11 13.533 10.38 39.977 10.9 41.222 1.04 2.177 5.19 3.422 8.82 2.8 3.64-.623 5.71-3.111 4.67-5.289-3.63-7.156-12.71-27.689-10.38-37.488 2.86-11.667 7.53-16.178 29.59-28.311 24.13-13.066 40.48-32.355 41-33.133 1.81-2.022.25-4.666-3.12-5.599-1.04-.467-2.07-.623-3.11-.623zm-399.88-187.596c-2.07 0-4.15.466-5.45 1.555l-247.55 184.952c-2.34 1.867-1.82 4.511 1.04 5.911 3.11 1.4 7.52 1.089 9.86-.622l247.55-184.952c2.34-1.867 1.82-4.511-1.04-5.911-1.29-.622-2.85-.933-4.41-.933zm152.06-226.174c-2.07 0-4.15.467-5.45 1.556L1125.22 712.43c-2.34 1.866-2.08 4.511 1.04 5.911 3.11 1.4 7.52 1.244 9.86-.622l578.66-431.969c2.34-1.867 2.08-4.511-1.04-5.911-1.29-.623-2.85-.934-4.41-.934z"/><path d="M991.062 623.921c-2.335 0-4.67.778-5.968 2.022-2.076 2.022-.778 4.667 2.595 5.756l273.501 95.509c3.38 1.244 7.79.466 9.6-1.556 2.08-2.022.78-4.666-2.59-5.755l-273.505-95.509c-1.297-.312-2.595-.467-3.633-.467zm590.598-395.259c-1.03 0-1.81.156-2.85.311-3.63.934-5.19 3.422-3.63 5.6l25.69 35.777-156.99 116.664c-1.3.934-1.82 2.023-1.56 3.112.26 1.088 1.3 2.177 2.59 2.799l146.1 66.732c2.85 1.4 7.26 1.089 9.6-.622l109.24-76.532 67.47 30.022c3.11 1.4 7.53.933 9.86-.933 2.34-1.867 1.56-4.511-1.56-5.911l-72.65-32.355c-2.86-1.245-7.01-1.089-9.6.622l-109.25 76.532-135.19-61.599 154.91-115.264c1.56-1.245 2.08-2.956 1.04-4.356l-27.51-38.11c-.26-1.556-2.85-2.489-5.71-2.489zM892.197 699.674c-1.817 0-3.374.467-4.93 1.245-2.855 1.555-2.855 4.355-.26 5.911 21.538 13.533 101.202 42.621 148.943 45.265 26.73 1.556 74.48 24.111 112.88 42.155 23.62 11.044 43.86 20.533 58.65 25.511 38.4 12.599 146.61 67.043 189.43 100.331 19.46 15.089 46.19 36.866 72.14 57.865 31.13 25.203 63.05 51.173 82.51 65.803 37.11 28.15 66.17 18.82 89.27 11.2l3.89-1.25c23.61-7.47 169.97-49.31 171.52-49.78 3.64-.93 4.93-3.57 3.38-5.595-1.56-2.178-5.97-2.956-9.34-2.022-5.97 1.711-147.91 42.307-172.05 49.927l-3.89 1.25c-22.32 7.31-41.78 13.53-71.62-9.02-19.2-14.47-51.12-40.446-82.26-65.646-25.95-21.155-52.93-42.932-72.39-58.021-44.64-34.688-153.36-89.287-193.59-102.664-14.01-4.511-34.77-14.467-56.82-24.733-42.04-19.755-89.53-42.155-120.41-43.866-42.554-2.489-119.882-30.177-140.123-42.777-1.297-.622-3.114-1.089-4.93-1.089z"/><path d="M1232.13 819.762c-.52 0-1.04 0-1.82.155-1.03.156-95.75 14.467-126.89 18.2-29.06 3.422-69.54-8.555-69.8-8.711-3.37-1.089-7.78-.156-9.34 1.867-1.82 2.022-.26 4.666 3.11 5.599 1.82.623 45.15 13.533 79.15 9.489 31.66-3.733 123.77-17.733 127.67-18.199 3.89-.623 5.97-2.8 5.19-5.134-1.04-2.022-3.9-3.266-7.27-3.266z"/><path d="M721.192 674.164c-1.816 0-3.892.467-5.19 1.4-2.594 1.711-2.335 4.356.52 5.911l63.834 34.222-51.638 43.554-55.272 41.999c-2.335 1.711-1.817 4.356 1.038 5.756l57.348 29.555s.259.155.518.155l189.429 83.999a11.51 11.51 0 005.19.777c1.816-.155 3.633-.777 4.671-1.711l121.18-101.42c2.34-1.866 1.56-4.511-1.56-5.911l-192.797-83.376c-3.114-1.4-7.525-.933-9.86.933-2.336 1.867-1.557 4.511 1.556 5.911l187.091 80.888-113.136 94.576-183.46-81.354-52.158-26.755 51.12-38.889.26-.155 55.271-46.666c2.076-1.711 1.557-4.2-1.038-5.6l-68.765-36.71c-.778-.778-2.335-1.089-4.152-1.089z"/><path d="M789.958 778.073c-2.336 0-4.411.622-5.709 1.711-2.335 1.866-1.557 4.511 1.816 5.911l197.992 83.531c3.114 1.4 7.525.934 9.86-1.088 2.336-1.867 1.557-4.511-1.816-5.911L794.11 778.695c-1.298-.467-2.855-.622-4.152-.622zm-56.569-122.575c-2.855 0-5.45 1.089-6.488 2.644l-28.544 44.177c-1.038 1.711-.259 3.734 2.336 4.822l310.347 139.064c3.12 1.4 7.53 1.089 9.86-.777 2.34-1.867 1.82-4.511-1.29-5.911L713.408 702.319l26.468-41.221c1.297-2.178-.519-4.667-4.152-5.444-.778-.156-1.557-.156-2.335-.156z"/><path d="M153.685 195.218c-.519 0-1.037 0-1.556.155-3.893.467-6.228 2.8-5.19 5.134l42.816 107.175c.259.622.778 1.089 1.297 1.556l30.101 22.866c-4.93 26.91-65.91 356.682-71.879 382.503-4.411 19.289-2.595 28.311 6.487 32.2 8.823 3.733 20.76.933 29.063-1.556 6.228-1.867 25.69-7 50.082-13.377 78.367-20.378 209.15-54.444 258.972-74.043 47.746-18.667 106.911-21 181.125-6.689 39.183 7.466 249.111 30.644 261.307 28.933 3.893-.623 5.969-2.8 5.19-5.134-.778-2.177-4.411-3.422-7.785-3.111-14.791 0-208.63-19.91-254.301-28.621-28.803-5.445-116.771-22.244-193.321 7.777-48.784 19.133-184.238 54.444-256.896 73.421-25.689 6.689-44.373 11.511-50.86 13.533-11.158 3.267-14.012 2.489-14.531 2.178-1.817-.778-5.45-4.667-.779-24.266 6.228-27.066 71.62-380.948 72.398-384.526.26-1.089-.259-2.178-1.557-3.111l-30.879-23.488-42.297-106.243c-1.038-2.022-3.893-3.266-7.007-3.266z"/><path d="M1066.57 467.747c-2.07 0-4.15.622-5.7 1.711L816.166 662.965c-2.336 1.866-1.817 4.511 1.297 5.911 3.114 1.4 7.525 1.089 9.861-.778l244.956-193.663c2.34-1.866 1.82-4.511-1.29-5.911-1.3-.622-2.86-.777-4.42-.777zm-51.38-15.712c-2.07 0-4.41.622-5.7 1.711-1.56 1.4-167.635 138.442-192.806 153.375-29.322 17.422-38.145 39.355-33.734 53.354.779 2.334 4.412 3.889 8.044 3.422 3.893-.466 6.488-2.644 5.709-4.822-3.373-11.355 4.412-30.643 29.842-45.888 25.69-15.399 187.355-148.708 194.095-154.308 2.34-1.866 1.56-4.511-1.55-5.911-1.04-.622-2.34-.933-3.9-.933z"/><path d="M477.27 209.218c-2.076 0-4.152.622-5.709 1.711-2.335 1.866-1.816 4.511 1.298 5.911l457.482 208.907c.26.155.779.311 1.038.466l231.471 71.243c3.37 1.089 7.78.311 9.34-1.866 1.81-2.022.52-4.667-3.12-5.6l-230.944-71.088-456.704-208.906c-1.297-.467-2.855-.778-4.152-.778z"/><path d="M1250.55 349.215c-2.07 0-4.15.623-5.44 1.556l-154.66 118.375c-2.34 1.867-1.82 4.511 1.3 5.911 3.11 1.4 7.52 1.089 9.86-.778l154.65-118.375c2.34-1.867 1.82-4.511-1.29-5.911-1.56-.467-3.12-.778-4.42-.778zm-36.33-17.577c-2.07 0-4.15.466-5.45 1.555l-166.85 124.131c-2.33 1.867-2.07 4.511 1.04 5.911 3.11 1.4 7.52 1.244 9.86-.622l166.85-124.131c2.34-1.867 2.08-4.511-1.03-5.911-1.3-.622-2.86-.933-4.42-.933zm-99.12-48.066c-2.08 0-3.89.466-5.45 1.555-14.79 10.422-363.806 255.417-380.932 270.661-5.19 4.667-8.564 5.911-10.38 6.067-4.411.311-11.936-3.422-21.538-8.244-3.892-2.022-8.304-4.2-13.234-6.533-29.063-13.689-199.808-112.309-201.624-113.243-2.855-1.555-7.266-1.555-9.861.156-2.595 1.711-2.595 4.355.26 5.911 7.006 4.044 172.821 99.865 202.662 113.864 4.93 2.334 9.082 4.511 12.975 6.378 13.234 6.689 22.056 11.044 32.436 10.111 7.006-.622 13.234-3.578 19.981-9.644 16.607-14.778 376.265-267.239 379.895-269.884 2.59-1.711 2.08-4.355-.78-5.911-1.04-.933-2.85-1.244-4.41-1.244z"/><path d="M732.609 228.662c-2.076 0-4.152.622-5.449 1.556-2.076 1.555-202.663 154.463-255.34 193.973-50.341 37.644-40.999 65.177-21.278 82.754-18.424 2.956-37.886 5.445-42.556 4.978-3.114-.933-7.007-.311-9.083 1.4-2.075 1.867-1.297 4.511 2.077 5.911 2.594.933 9.081 3.578 63.315-5.911 2.336-.467 4.152-1.4 4.671-2.8.779-1.4.26-2.8-1.297-3.889-29.323-21.155-24.133-47.754 15.05-77.154 52.677-39.51 253.263-192.418 255.339-193.974 2.336-1.866 1.817-4.511-1.297-5.911-1.298-.777-2.595-.933-4.152-.933z"/><path d="M602.864 34.688c-3.892 0-7.006 1.867-7.006 4.2.26 21.156 3.114 127.242 25.43 139.842 21.019 11.822 63.316 37.333 63.575 37.644.26.155.52.311.779.311l425.048 196.151c3.11 1.4 7.52 1.089 9.86-.777 2.33-1.867 1.82-4.511-1.3-5.911L694.465 210.152c-3.893-2.489-43.595-26.133-63.575-37.644-11.937-6.844-19.981-73.265-21.019-133.775 0-2.178-3.114-4.044-7.007-4.044z"/><path d="M934.753 28.155c-2.076 0-4.152.467-5.45 1.556L484.536 353.415c-1.297.934-1.816 2.023-1.557 3.111.26 1.089 1.038 2.178 2.595 2.8l349.015 167.219c3.114 1.4 7.525 1.089 9.861-.622 2.335-1.867 1.816-4.511-1.038-5.911L500.105 355.438 940.202 35c2.595-1.867 2.076-4.511-1.038-5.911-1.298-.623-2.854-.934-4.411-.934zm-664.038 6.533h-.778c-3.893.312-6.488 2.334-6.228 4.667.519 2.8 57.866 277.972 93.676 383.592 36.069 106.087 137.27 227.573 138.308 228.818 1.817 2.022 5.969 2.955 9.342 1.867 3.373-1.089 4.93-3.578 3.114-5.6-1.038-1.245-101.461-121.642-137.011-226.64-35.81-105.465-92.898-380.17-93.417-382.97-.259-2.178-3.373-3.733-7.006-3.733z"/><path d="M361.278 408.481c-.519 0-1.038 0-1.557.156L207.66 428.703c-3.893.466-6.228 2.8-5.45 4.977.779 2.334 4.671 3.734 8.304 3.267l152.061-20.066c3.893-.467 6.228-2.8 5.45-4.978-.519-2.022-3.374-3.422-6.747-3.422zm64.872 131.908c-.778 0-1.297 0-2.076.156l-245.738 44.021c-3.633.622-5.709 2.956-4.671 5.289 1.038 2.178 4.93 3.578 8.823 2.8l245.738-44.022c3.633-.622 5.709-2.955 4.671-5.288-1.038-1.867-3.892-2.956-6.747-2.956z"/><path d="M267.082 418.591c-.519 0-1.038 0-1.557.156-3.892.467-6.228 2.8-5.19 5.133.26.622 26.728 69.532 18.165 98.931-8.823 30.489-35.291 193.663-36.329 200.508-.26 2.333 2.335 4.355 6.228 4.666 3.892.311 7.266-1.4 7.785-3.733.259-1.711 27.506-169.863 36.328-199.885 9.083-31.111-17.126-99.398-18.164-102.354-1.038-2.177-3.893-3.422-7.266-3.422zm61.501 139.22c-.778 0-1.557 0-2.076.156-3.633.777-5.709 3.111-4.411 5.288l65.911 122.42c1.297 2.178 5.189 3.422 8.822 2.644 3.633-.777 5.709-3.111 4.412-5.288l-65.911-122.42c-1.038-1.556-3.893-2.8-6.747-2.8z"/><path d="M361.279 618.632a10.8 10.8 0 00-3.114.466L257.483 650.52c-3.373 1.089-4.67 3.578-3.113 5.755 1.816 2.023 5.968 2.8 9.6 1.867l100.682-31.421c3.374-1.089 4.671-3.578 3.114-5.756-1.557-1.555-3.892-2.333-6.487-2.333zM455.992 43.4h-.26c-3.892.155-6.746 2.022-6.746 4.355 0 1.089 8.563 103.287 6.487 121.953-.778 7.311 1.038 16.955 2.854 27.066 3.114 16.333 6.487 34.688-1.816 42.466-3.374 3.266-11.677 10.577-22.316 19.911-75.253 66.887-97.828 88.976-97.05 94.731.26 2.333 3.633 4.044 7.526 3.889 3.632-.156 6.487-2.022 6.487-4.2 2.854-7.933 67.208-65.177 94.714-89.598 10.639-9.489 18.943-16.8 22.575-20.222 10.899-10.267 7.266-29.4 3.893-47.91-1.817-9.8-3.633-18.978-2.855-25.511 2.076-19.133-5.968-118.686-6.487-122.886-.26-2.334-3.373-4.045-7.006-4.045z"/><path d="M608.833 118.687h-.519l-316.579 15.089c-3.893.155-6.747 2.177-6.488 4.511.26 2.333 3.633 4.044 7.526 3.888l316.579-15.088c3.892-.156 6.747-2.178 6.487-4.511-.259-2.178-3.373-3.889-7.006-3.889zm-5.969-53.666h-.519L279.538 78.865c-3.892.156-6.747 2.178-6.487 4.511.259 2.334 3.633 4.044 7.525 3.889l322.807-13.844c3.892-.156 6.747-2.178 6.487-4.511-.259-2.178-3.373-3.889-7.006-3.889zm611.356-40.754c-2.07 0-4.15.466-5.45 1.555L576.136 496.524c-.26.311-.779.622-1.039.933l-12.715 16.955c-1.038 1.556-.778 3.267 1.298 4.511L724.305 623.61l-18.424 24.577c-1.557 2.178 0 4.667 3.633 5.6 3.632.933 7.785 0 9.342-2.178l20.24-27.066c1.038-1.555.778-3.266-1.298-4.511L577.173 515.345l10.38-13.999L1219.67 31.111c2.34-1.867 2.08-4.511-1.03-5.911-1.3-.622-2.86-.933-4.42-.933zM2103.5 2077.56c-1.56 0-2.85.31-4.15.93l-151.8 69.07c-3.12 1.4-3.64 4.04-1.3 5.91 2.33 1.86 6.75 2.17 9.86.77l151.8-69.06c3.12-1.4 3.63-4.04 1.3-5.91-1.56-1.25-3.63-1.71-5.71-1.71zm-677.27-122.89c-2.34 0-4.67.62-5.97 2.02-2.08 2.03-1.04 4.52 2.08 5.76l209.15 79.95 176.45 131.45c2.34 1.86 6.75 2.17 9.86.62 3.11-1.4 3.63-4.05 1.04-5.91l-177.23-132.07c-.52-.31-1.04-.62-1.82-.93l-209.93-80.42c-1.04-.31-2.33-.47-3.63-.47z"/><path d="M1986.73 1852.63c-1.56 0-3.37.31-4.67 1.09l-350.57 182.46c-2.86 1.56-3.38 4.2-.78 5.91 2.59 1.71 7 2.02 9.86.47l350.57-182.46c2.85-1.56 3.37-4.2.78-5.92-1.3-1.08-3.12-1.55-5.19-1.55zM1174 1973.8c-2.33 0-4.67.78-5.97 2.03-2.07 2.02-1.03 4.51 2.34 5.75l164.78 61.29c3.37 1.24 7.52.62 9.6-1.4 2.07-2.02 1.04-4.51-2.34-5.76l-164.77-61.28c-1.04-.47-2.34-.63-3.64-.63zm-92.64-499.32c-2.85 0-5.44.94-6.48 2.65-1.56 2.17.26 4.66 3.89 5.44l41 9.8-11.68 46.67c-.26 1.24.26 2.48 1.56 3.42l194.88 137.35c.26.16.52.31.78.47l305.94 154.62c2.85 1.55 7.52 1.24 9.86-.47 2.59-1.71 2.07-4.51-.78-5.91l-305.42-154.31-192.29-135.48 12.2-48.07c.52-1.87-1.3-3.89-4.41-4.51l-46.19-11.05c-1.04-.46-1.82-.62-2.86-.62z"/><path d="M1190.09 1403.7c-3.89 0-7 1.87-7 4.2v159.6c0 .93.52 1.71 1.29 2.49l74.48 60.35c2.33 1.87 6.74 2.34 9.86.94l169.19-74.67c1.55-.78 2.59-1.71 2.85-2.95.26-1.25-.52-2.34-1.82-3.27l-67.98-46.2c-2.6-1.71-7.01-1.87-9.86-.31-2.86 1.56-3.12 4.2-.52 5.91l63.05 42.78-157.25 69.37-69.02-55.99V1407.9c-.26-2.33-3.38-4.2-7.27-4.2z"/><path d="M1434.53 1460.48c-1.55 0-3.37.31-4.67 1.09l-244.44 127.71c-2.85 1.55-3.11 4.2-.78 5.91 2.6 1.71 7.01 1.87 9.86.47l244.44-127.71c2.86-1.56 3.12-4.2.78-5.91-1.3-1.09-3.11-1.56-5.19-1.56z"/><path d="M864.172 1360.31h-5.19c-64.094 1.24-445.546 21-449.438 21.15-3.892.16-6.747 2.18-6.487 4.51.259 2.34 3.892 4.05 7.525 3.89 3.892-.15 384.825-19.91 448.66-21.15 53.455-1.09 89.524 15.86 113.397 27.06 3.893 1.87 7.526 3.58 11.159 5.13 27.762 12.14 193.582 12.76 222.902 11.2 32.44-1.71 47.75 7.16 51.12 15.25 2.85 7.47-7.27 72.49-14.27 111.84-.26 1.09.26 2.33 1.55 3.11l141.43 99.56c2.59 1.71 7 2.02 9.86.46 2.85-1.55 3.37-4.2.78-5.91l-139.61-98.15c2.85-16.65 17.91-102.04 13.49-112.78-4.41-11.51-24.39-23.95-65.91-21.78-37.1 2.03-191.5 0-213.298-9.48-3.114-1.4-6.747-3.11-10.639-4.98-24.652-11.67-61.5-28.93-117.031-28.93z"/><path d="M1449.58 1429.06c-1.03 0-2.33.16-3.37.47l-189.95 61.6-127.93-5.6c-3.89-.16-7.26 1.55-7.52 3.88-.26 2.34 2.59 4.36 6.49 4.52l130 5.75c1.3 0 2.6-.15 3.89-.47l191.77-62.22c3.37-1.09 4.67-3.73 2.85-5.75-1.3-1.4-3.63-2.18-6.23-2.18zm-334.48 106.4c-1.56 0-3.11.31-4.67.93l-108.21 55.22c-2.07 1.09-2.854 2.8-2.08 4.36l7.01 14.93-24.391 14.16c-1.297.77-2.076 1.86-2.076 2.95v44.18c0 .78.26 1.4 1.038 2.02l29.579 31.11 12.2 30.18c.26.46.52.78.78 1.24l21.02 20.54c1.03.93 2.59 1.55 4.41 1.86l27.5 4.05 19.73 16.33c2.33 1.87 6.74 2.33 9.86.93 3.11-1.4 3.89-4.04 1.55-5.91l-21.28-17.73c-1.03-.78-2.33-1.4-3.89-1.56l-27.24-4.04-18.95-18.51-12.19-30.02c-.26-.31-.52-.78-.78-1.09l-29.324-30.65v-41.22l25.174-14.62c1.81-1.09 2.59-2.64 1.81-4.2l-7-14.78 104.57-53.35c2.86-1.56 3.37-4.2.78-5.91-1.04-.94-2.85-1.4-4.93-1.4z"/><path d="M1205.92 1599.39c-1.55 0-3.37.31-4.67 1.09l-187.87 100.02c-2.85 1.56-3.11 4.2-.52 5.91 2.6 1.71 7.01 1.87 9.86.31l187.87-100.02c2.86-1.55 3.12-4.2.52-5.91-1.3-.93-3.11-1.4-5.19-1.4zm196.44-71.55c-1.56 0-3.12.31-4.42.93l-96.79 46.35c-3.11 1.4-3.63 4.05-1.03 5.91 2.33 1.87 6.74 2.18 9.86.63l96.79-46.36c3.11-1.4 3.63-4.04 1.04-5.91-1.3-.93-3.38-1.55-5.45-1.55zM544.219 239.707c-2.076 0-4.152.466-5.45 1.555l-93.676 70.154c-2.335 1.867-1.816 4.511 1.038 5.911 3.114 1.4 7.525 1.089 9.861-.622l93.676-70.154c2.335-1.867 1.816-4.511-1.038-5.911-1.298-.622-2.854-.933-4.411-.933z"/><path d="M477.271 289.95c-2.336 0-4.671.777-5.969 2.022-2.076 2.022-.778 4.666 2.595 5.755l57.348 20.067c3.373 1.244 7.785.466 9.601-1.556 2.076-2.022.778-4.667-2.595-5.755l-57.348-20.067c-1.297-.311-2.595-.466-3.632-.466zm296.079-42.31c-2.076 0-4.152.622-5.45 1.555L500.625 453.591c-2.336 1.867-1.817 4.511 1.297 5.911 3.114 1.4 7.526 1.089 9.861-.778l267.275-204.396c2.336-1.866 1.817-4.511-1.297-5.911-1.557-.466-3.114-.777-4.411-.777zM534.618 122.264h-.52c-3.892.156-6.746 2.178-6.487 4.511l9.601 65.332c.26 1.245 1.298 2.333 2.855 2.956.259.155 26.987 11.977 53.455 23.488 15.569 6.844 28.025 12.133 37.107 16.022 5.449 2.333 9.601 4.044 12.715 5.133 4.411 1.711 10.12 3.889 14.272.778 2.595-1.867 2.076-4.511-1.038-5.911-.778-.467-1.817-.622-2.855-.778-8.563-2.8-66.17-27.999-103.017-44.332l-9.082-63.466c-.26-2.177-3.374-3.733-7.006-3.733zm112.099 112.931c.779-.622 1.817-.933 2.855-1.244-1.038.311-1.817.778-2.855 1.244zm-205.256-39.977H310.937c-3.893 0-7.006 1.866-7.006 4.2 0 2.333 3.113 4.2 7.006 4.2h130.524c3.892 0 7.006-1.867 7.006-4.2 0-2.334-3.114-4.2-7.006-4.2zm380.155 74.821c-2.076 0-4.152.467-5.449 1.556L538.511 472.413c-2.595 1.866-2.076 4.511 1.038 5.911 3.114 1.555 7.525 1.244 9.861-.623l277.655-200.818c2.595-1.866 2.076-4.511-1.038-5.911-1.038-.622-2.854-.933-4.411-.933zM712.369 458.413c-2.076 0-4.412.622-5.709 1.711-31.399 26.288-68.246 54.754-77.588 58.954-1.816 0-3.373.467-4.671 1.4-2.595 1.711-2.595 4.355.26 5.911 1.557.933 3.892 1.4 6.228 1.244 3.373-.155 13.234-.777 86.929-62.532 2.335-1.866 1.557-4.511-1.557-5.911-1.038-.466-2.595-.777-3.892-.777zm48.266 23.177c-2.076 0-4.152.623-5.709 1.711L673.705 547.7c-2.335 1.867-1.816 4.511 1.298 5.911 3.114 1.4 7.525 1.089 9.86-.778l81.221-64.398c2.335-1.867 1.816-4.511-1.298-5.911-1.297-.623-2.854-.934-4.151-.934zm206.037-181.685c-2.076 0-4.152.622-5.45 1.711l-107.688 83.532c-2.336 1.867-1.817 4.511 1.297 5.911 3.114 1.4 7.525 1.089 9.861-.778l107.689-83.531c2.335-1.867 1.816-4.511-1.298-5.911-1.557-.623-3.114-.934-4.411-.934zM732.609 175.308c-2.076 0-4.152.467-5.449 1.556-2.335 1.866-1.816 4.511 1.038 5.911l169.707 81.198c3.114 1.4 7.525 1.089 9.861-.622 2.335-1.867 1.816-4.511-1.038-5.911l-169.707-81.199c-1.298-.622-2.855-.933-4.412-.933zm40.741-21.778c-2.076 0-4.152.467-5.449 1.556-2.336 1.866-2.076 4.511 1.038 5.911l161.403 78.709c3.114 1.4 7.525 1.245 9.86-.622 2.336-1.867 2.076-4.511-1.038-5.911l-161.403-78.709c-1.297-.623-2.854-.934-4.411-.934zM357.127 1200.09c-25.431 0-72.139 2.33-159.847 10.11-86.41 7.62-171.783 16.8-172.561 16.95l2.595 8.25c159.587-17.27 334.224-31.58 351.091-25.51 10.639 8.86 14.272 69.68 16.348 106.08 1.038 16.65 1.816 30.96 3.114 39.36 1.297 8.55 5.968 35.31 11.936 69.22 14.532 82.44 36.07 207.19 39.184 243.9 2.854 35.32 67.727 136.27 77.847 145.45 27.246 25.04 98.087 95.35 119.625 121.02 5.449 6.68 11.937 13.53 18.424 20.68 18.683 20.23 37.886 41.07 40.481 58.34 5.449 35.77-22.836 90.84-48.006 105.77-1.557.94-2.076 2.02-2.076 3.27.259 1.24 1.297 2.33 2.854 3.11l51.12 22.24 8.304-6.84-44.892-19.6c28.025-21.31 51.638-75.44 46.708-108.89-2.854-18.97-22.835-40.75-42.297-61.6-6.487-7.15-12.975-13.84-18.164-20.37-21.798-25.98-93.157-96.76-120.404-121.96-8.044-7.46-72.658-107.17-75.512-141.24-3.114-36.86-24.911-161.77-39.183-244.37-5.969-33.91-10.639-60.51-11.937-69.07-1.297-8.08-2.076-22.4-3.114-38.88-3.373-57.25-7.006-101.73-19.721-111.22-2.336-1.71-5.709-4.2-31.917-4.2z"/><path d="M826.804 1821.36c-3.633 0-6.487 1.56-7.006 3.74l-17.126 84.62-396.502 132.84c-3.373 1.09-4.671 3.73-2.595 5.75 1.816 2.03 6.228 2.8 9.601 1.56l399.616-133.93c2.076-.62 3.373-1.87 3.633-3.11l17.645-86.8c.519-2.33-2.335-4.36-6.228-4.67h-1.038z"/><path d="M15.376 1830.54c-3.373 0-6.228 1.4-6.747 3.27-.778 2.33 1.557 4.51 5.45 4.97l117.29 14.94 51.898 28.62c1.297.78 3.113 1.09 4.67 1.09h87.449l86.67 84.31-16.867 31.26c-.519 1.25-.26 2.49.778 3.58 65.133 61.91 163.739 155.86 167.631 160.84 1.557 2.02 5.71 2.96 9.342 2.02 3.374-.93 5.19-3.42 3.633-5.44-4.152-5.76-143.498-137.97-166.852-160.22l16.866-31.26c.519-1.25.26-2.49-.778-3.58l-90.303-88.05c-1.297-1.24-3.633-2.02-5.968-2.02h-88.746l-51.12-28.15c-1.038-.47-2.076-.94-3.373-1.09l-119.106-15.09h-1.817z"/><path d="M652.426 1928.85c-1.297 0-2.335.15-3.632.62l-271.687 94.89c-.519.15-.779.31-1.298.47l-214.08 117.13c-2.854 1.55-3.113 4.2-.519 5.91 2.595 1.71 7.007 1.86 9.861.31l213.561-116.82 271.168-94.58c3.373-1.24 4.411-3.73 2.595-5.75-1.298-1.4-3.633-2.18-5.969-2.18zm-47.226-50.4c-1.297 0-2.595.16-3.633.62l-235.358 84.47c-3.373 1.24-4.411 3.73-2.335 5.75 2.076 2.03 6.227 2.65 9.601 1.4l229.39-82.28 14.791 15.08-260.788 101.42c-3.374 1.25-4.152 3.89-2.076 5.76 2.076 2.02 6.487 2.49 9.601 1.24l266.497-103.59c3.114-1.25 4.152-3.74 2.335-5.6l-21.797-22.4c-1.038-.94-2.595-1.71-4.411-2.02-.779.15-1.298.15-1.817.15z"/><path d="M189.755 1210.82h-1.298c-3.892.47-6.487 2.64-5.709 4.82l125.853 443.17c0 .16.001.31.26.47l92.379 196.93-13.234 17.11c-.779 1.09-.779 2.33 0 3.42l28.284 38.73v32.36c0 2.33 3.114 4.2 7.007 4.2 3.892 0 7.006-1.87 7.006-4.2v-32.98c0-.62-.26-1.09-.519-1.71l-27.506-37.8 12.974-16.8c.779-.93.779-2.02.519-2.96l-92.898-198.32-125.593-443.02c-1.298-1.86-4.152-3.26-7.525-3.42z"/><path d="M404.094 1343.04h-1.298l-171.783 17.27c-3.892.31-6.487 2.48-5.709 4.82.519 2.33 4.152 3.89 8.045 3.42l171.783-17.27c3.892-.31 6.487-2.49 5.708-4.82-.519-2.02-3.373-3.42-6.746-3.42zm26.209 154.62h-1.298l-154.656 16.02c-3.893.47-6.487 2.64-5.709 4.82.779 2.34 4.411 3.89 8.044 3.42l154.657-16.02c3.892-.46 6.487-2.64 5.708-4.82-.519-2.02-3.373-3.42-6.746-3.42zm17.645 106.71c-.519 0-1.038 0-1.557.15l-141.422 17.58c-3.893.47-6.228 2.64-5.45 4.98.779 2.33 4.412 3.73 8.304 3.26l141.422-17.57c3.893-.47 6.228-2.65 5.45-4.98-.519-2.02-3.633-3.42-6.747-3.42zm0 81.82c-1.297 0-2.335.15-3.373.62l-94.973 32.35c-3.374 1.09-4.671 3.74-2.595 5.76 1.816 2.02 6.227 2.8 9.601 1.56l94.973-32.36c3.374-1.09 4.671-3.73 2.595-5.75-1.557-1.4-3.892-2.18-6.228-2.18zm84.595 121.17c-1.298 0-2.595.16-3.633.63l-124.037 45.26c-3.373 1.25-4.411 3.73-2.335 5.76 2.076 2.02 6.228 2.64 9.601 1.4l124.037-45.27c3.373-1.24 4.411-3.73 2.335-5.75-1.297-1.25-3.633-2.03-5.968-2.03z"/><path d="M352.975 1413.19h-.519c-3.892.16-6.747 2.18-6.487 4.52 10.639 74.82 25.689 188.06 24.651 198.17-.519.62-.519 1.4-.259 2.18.778 2.33 4.411 3.73 8.304 3.26 6.487-.77 6.487-3.57 5.709-13.06-.26-5.29-1.038-12.91-2.076-22.87-1.817-16.64-4.671-39.82-8.563-68.75-6.488-49.31-13.494-99.25-13.754-99.87-.259-1.86-3.373-3.58-7.006-3.58zm-109.246-206.88h-.778c-3.893.31-6.488 2.33-5.969 4.67l31.918 149.48c.519 2.33 3.892 3.89 7.785 3.58 3.892-.31 6.487-2.33 5.968-4.67l-31.918-149.48c-.519-2.03-3.633-3.58-7.006-3.58zm-23.355 112c-.519 0-1.297 0-1.816.15L24.2 1351.75c-3.633.62-5.968 2.96-4.93 5.13 1.038 2.18 4.93 3.58 8.563 2.96l194.358-33.29c3.633-.62 5.968-2.95 4.93-5.13-1.037-1.87-3.892-3.11-6.747-3.11z"/><path d="M76.357 1343.04c-.519 0-1.037 0-1.556.16-3.893.62-6.228 2.79-5.19 5.13l83.815 208.13c1.038 2.33 4.671 3.73 8.563 3.11 3.893-.62 6.228-2.8 5.19-5.13l-83.815-208.13c-.779-2.03-3.633-3.27-7.007-3.27z"/><path d="M160.174 1368.55c-.779 0-1.298 0-2.077.16l-68.246 12.75c-3.632.62-5.708 3.11-4.67 5.29 1.038 2.18 5.19 3.42 8.822 2.8l60.981-11.36 58.385 167.69c.779 2.33 4.411 3.73 8.304 3.27 3.892-.47 6.228-2.65 5.449-4.98l-60.202-172.2c-.519-1.09-1.557-2.18-3.373-2.8-.778-.31-2.076-.62-3.373-.62z"/><path d="M280.578 1527.99c-4.931 0-19.722 2.18-81.221 11.36-35.551 5.29-71.101 10.73-77.069 11.66H26.017c-3.892 0-7.007 1.87-7.007 4.2 0 2.34 3.114 4.2 7.007 4.2h97.049c.519 0 1.038 0 1.817-.15 59.423-9.02 149.986-22.56 155.695-23.18l-1.038-4.2h.259l3.892-3.58c-1.038 0-1.556-.31-3.113-.31zm-113.917 335.22c-1.298 0-2.595.15-3.893.62-33.993 13.38-144.277 58.49-132.6 79.64 9.602 17.42 82.778 116.04 105.873 129.89 16.607 9.95 39.442 46.82 46.968 60.2 1.297 2.17 5.189 3.42 8.822 2.64 3.633-.78 5.709-3.11 4.412-5.29-1.038-2.02-28.285-50.24-50.342-63.62-19.721-11.82-91.86-107.33-102.499-126.62-5.708-10.26 61.5-44.33 126.891-70 3.374-1.24 4.152-3.89 2.076-5.91-1.297-.78-3.633-1.55-5.708-1.55zm21.277 11.82c-1.557 0-3.114.31-4.412.93-3.113 1.4-3.373 4.05-1.038 5.91l163.739 121.18c2.336 1.87 6.747 2.02 9.861.62 3.114-1.4 3.374-4.04 1.038-5.91l-163.739-121.18c-1.557-1.08-3.633-1.55-5.449-1.55z"/><path d="M118.395 1883.58c-1.297 0-2.595.16-3.892.63-3.373 1.24-4.152 3.89-2.076 5.91l194.358 177.17c2.076 1.87 6.488 2.49 9.861 1.25 3.374-1.25 4.152-3.89 2.076-5.91l-194.359-177.18c-1.557-1.09-3.892-1.87-5.968-1.87zm-56.309 28.31c-1.297 0-2.854.32-4.152.78-3.114 1.4-3.892 4.05-1.557 5.91l123.518 103.91-61.24 28.47c-3.114 1.4-3.633 4.04-1.297 5.91 2.335 1.87 6.747 2.18 9.86.78l66.689-30.96c3.114-1.4 3.633-3.89 1.298-5.75l-127.67-107.18c-1.037-1.24-3.114-1.87-5.449-1.87zm644.574 82.14c-1.297 0-2.595.15-3.633.62l-258.712 93.8c-3.373 1.24-4.411 3.73-2.335 5.75 2.075 2.02 6.227 2.65 9.601 1.4l258.712-93.8c3.373-1.24 4.411-3.73 2.336-5.75-1.298-1.4-3.633-2.02-5.969-2.02zm49.044-233.18h-.519l-247.295 12.14c-3.892.15-6.746 2.17-6.487 4.51.26 2.33 3.633 4.04 7.525 3.89l247.295-12.14c3.892-.15 6.747-2.17 6.487-4.51-.519-2.18-3.373-3.89-7.006-3.89zm-19.461-90.37h-.778l-135.454 8.09c-3.893.15-6.747 2.33-6.228 4.66.259 2.34 3.892 4.05 7.785 3.74l135.454-8.09c3.892-.16 6.747-2.34 6.228-4.67-.519-2.02-3.374-3.73-7.007-3.73zm-203.701-135.02h-.519c-32.955 1.55-86.67 4.04-93.676 4.04h-1.816c-4.931.31-6.228 2.02-6.228 4.67h-.26c0 .31 0 .47.26.78 0 .93.259 1.86.259 2.8l12.715 79.02c.26 2.33 3.893 4.04 7.526 3.73l274.281-14.16c3.893-.15 6.747-2.17 6.488-4.51-.26-2.33-3.893-4.04-7.525-3.88l-267.276 13.68c-2.335-14-9.601-59.42-11.937-73.88 2.076 0 4.671-.16 7.785-.31 8.823-.32 20.759-.94 32.696-1.4 20.5-.94 41.259-1.87 46.449-2.18l30.62 5.13c3.632.62 7.525-.62 8.563-2.95 1.038-2.18-1.038-4.52-4.93-5.14l-31.918-5.44h-1.557zm340.451-98.93h-.778l-447.881 31.73c-3.893.31-6.488 2.33-6.228 4.67.519 2.33 3.892 3.88 7.785 3.73l447.881-31.73c3.892-.31 6.487-2.34 6.228-4.67-.519-2.18-3.633-3.73-7.007-3.73z"/><path d="M508.409 1381.77h-.778c-3.892.16-6.747 2.34-6.228 4.67l24.133 153.68c.26 2.34 3.892 4.05 7.785 3.74 3.892-.16 6.746-2.34 6.227-4.67l-24.132-153.68c-.26-2.03-3.374-3.74-7.007-3.74zm458.262-203.15h-.779l-577.627 32.36c-3.892.15-6.747 2.33-6.228 4.66.26 2.34 3.893 4.05 7.785 3.74l577.368-32.36c3.892-.15 6.747-2.33 6.228-4.67-.26-2.17-3.114-3.73-6.747-3.73z"/><path d="M789.957 1188.42h-.779c-3.892.31-6.747 2.33-6.228 4.67 0 0 7.526 43.24 15.31 86.64 4.412 25.2 8.044 45.11 10.899 59.58 1.557 8.08 2.854 14.93 3.892 19.6.519 2.33 1.038 4.35 1.298 5.6.519 1.86 1.557 5.75 8.044 5.44 3.892-.16 6.747-2.18 6.487-4.51 0-.47-.259-.78-.519-1.25-2.595-7.62-19.98-106.55-31.398-172.04-.519-2.02-3.374-3.73-7.006-3.73zm31.398 173.13c1.038 0 2.076 0 2.854.16-1.037-.16-2.075-.16-2.854-.16zm-301.009-158.04h-.519c-3.892.15-6.746 2.18-6.487 4.51l23.614 171.11c.259 2.33 3.632 4.04 7.525 3.89 3.892-.16 6.747-2.18 6.487-4.51l-23.613-171.11c-.26-2.18-3.374-3.89-7.007-3.89z"/><path d="M991.064 1102.09h-.779l-278.693 17.89c-3.633.31-6.487 2.18-6.228 4.51l7.526 68.6c.259 2.33 3.633 4.04 7.525 3.89 3.892-.16 6.747-2.18 6.487-4.52l-7.266-64.55 264.162-16.95v25.19l-54.752 101.27-71.88 10.73c-3.892.62-5.968 2.8-5.189 5.14 1.038 2.33 4.671 3.57 8.563 3.11l75.771-11.36c2.335-.31 4.152-1.4 4.93-2.8l56.31-104.06c.259-.47.26-.94.26-1.25v-30.64c0-1.25-.779-2.33-2.336-3.11-1.038-.78-2.855-1.09-4.411-1.09z"/><path d="M851.716 1188.42h-.259c-3.892.16-6.747 2.02-6.747 4.36l7.006 82.28-185.536 5.91c-3.892.16-6.746 2.18-6.746 4.36.259 2.33 3.632 4.04 7.265 4.04l192.543-6.06c3.892-.16 6.746-2.18 6.746-4.36l-7.266-86.49c-.259-2.33-3.373-4.04-7.006-4.04z"/><path d="M948.507 1210.98h-94.973c-3.893 0-7.006 1.86-7.006 4.2 0 2.33 3.113 4.2 7.006 4.2h94.973c3.893 0 7.006-1.87 7.006-4.2.26-2.34-3.113-4.2-7.006-4.2zm5.967-178.42c-6.488 0-13.234.31-20.5.62-25.43 1.24-872.927 56.46-908.997 58.95-3.892.31-6.746 2.34-6.227 4.67.519 2.33 3.892 4.04 7.784 3.73 8.823-.62 883.307-57.55 908.478-58.8 26.208-1.24 39.183-.93 47.227 4.83 5.19 3.73 2.855 12.28.26 17.57l-353.946 23.8c-3.892.31-6.747 2.34-6.228 4.67.519 2.33 3.893 4.04 7.785 3.73l358.357-24.11c2.595-.15 4.93-1.24 5.709-2.64 1.297-1.87 11.674-19.13-1.038-28.47-9.342-6.84-22.576-8.55-38.664-8.55z"/><path d="M170.812 1087.78h-1.297c-3.892.46-6.228 2.64-5.709 4.98l38.665 121.33c.778 2.33 4.411 3.73 8.303 3.42 3.893-.47 6.228-2.65 5.709-4.98l-38.664-121.33c-.779-2.02-3.633-3.42-7.007-3.42zm619.145-94.111h-1.038L6.034 1054.49c-3.892.31-6.487 2.49-5.968 4.67.52 2.33 3.893 3.89 7.785 3.57l782.884-60.66c3.893-.31 6.488-2.49 5.969-4.668-.26-2.177-3.374-3.733-6.747-3.733z"/><path d="M532.282 861.76h-.259c-3.893.155-7.007 2.022-6.747 4.355L537.213 1017c.259 2.33 3.373 4.05 7.265 4.05 3.893-.16 7.007-2.03 6.747-4.36l-11.937-150.886c-.259-2.178-3.373-4.044-7.006-4.044z"/><path d="M450.544 799.695c-2.336 0-4.671.778-5.969 2.023-2.076 2.022-.778 4.511 2.336 5.755l140.125 50.088 17.126 53.043c.779 2.334 4.412 3.733 8.304 3.267 3.892-.467 6.228-2.645 5.449-4.978l-17.905-54.91c-.259-1.244-1.557-2.178-3.373-2.8l-142.98-51.021c-.778-.156-1.816-.467-3.113-.467z"/><path d="M593.521 850.716h-1.297l-165.555 17.578-37.626-8.556c-3.114-.622-6.488 0-8.304 1.711l-32.436 29.555-13.494-15.866c-.778-1.089-2.595-1.867-4.411-2.178-1.817-.311-3.893-.155-5.709.467-.519.155-62.537 22.866-104.834 21.777-43.595-1.244-110.284-9.8-110.803-9.955-3.892-.467-7.525.933-8.304 3.267-.778 2.333 1.557 4.511 5.45 4.977 2.854.311 68.505 8.867 113.138 10.111 38.145 1.089 88.226-14.622 106.131-20.688l15.57 18.355c1.038 1.4 3.373 2.178 5.968 2.333 2.595 0 4.931-.622 6.228-1.866l36.069-32.822 34.253 7.777a9.71 9.71 0 003.633.156l167.371-17.888c3.893-.467 6.488-2.645 5.709-4.823-.519-1.866-3.373-3.422-6.747-3.422z"/><path d="M102.826 873.115c-.519 0-1.038 0-1.557.156-3.892.622-5.968 2.8-5.19 5.133l67.986 168.466c1.038 2.33 4.671 3.73 8.564 3.11 3.892-.62 5.968-2.8 5.19-5.13l-67.987-168.624c-1.038-1.866-3.892-3.111-7.006-3.111zm131.82 22.4c-3.893 0-7.006 1.866-7.006 4.2v137.045c0 2.33 3.113 4.2 7.006 4.2 3.892 0 7.006-1.87 7.006-4.2V899.715c0-2.334-3.114-4.2-7.006-4.2z"/><path d="M608.832 927.248h-1.038l-374.186 36.71c-3.892.312-6.487 2.489-5.709 4.823.519 2.333 4.152 3.888 8.045 3.422l374.186-36.711c3.892-.311 6.487-2.488 5.708-4.822-.519-1.866-3.632-3.422-7.006-3.422zm-463.19 52.266c-.778 0-1.557 0-2.076.155L23.681 1002.69c-3.632.78-5.708 3.11-4.67 5.29 1.297 2.18 5.19 3.42 8.822 2.8l119.885-23.022c3.633-.778 5.709-3.111 4.671-5.289-1.038-1.867-3.633-2.955-6.747-2.955zM1961.56 24.11l-19.98 8.712 147.65 121.331 123 277.038v.312l316.06 541.633 178.01 99.704 557.9 229.76 1093.5 418.28 13.23-12.45-1093.49-418.28-556.35-229.13-171.78-96.284-313.73-537.9-123.77-279.061-150.25-123.664z"/><path d="M4359.26 560.144c-.78.155-81.49 23.021-185.8 42.932-107.17 20.533-128.71 44.644-160.88 81.043l-3.64 4.044c-26.73 30.022-172.56 239.395-250.67 351.857-21.79 31.42-37.62 54.13-43.33 62.07-29.06 40.91-41.78 122.26-.52 203.93 42.3 84 167.89 227.88 173.34 233.95l21.8-6.85c-1.3-1.4-130.01-148.7-171.53-231.3-39.44-78.25-28.02-155.24-.52-193.82 5.71-7.93 21.54-30.64 43.34-62.22 72.66-104.222 223.68-321.218 249.89-350.617l3.63-4.044c31.66-35.622 49.05-55.221 146.61-73.888 105.88-20.377 187.88-43.554 188.65-43.71l-10.37-13.377z"/><path d="M2298.12 543.034l-7.27 14.155 1060.54 192.574 609.03 140.308 434.13 85.865 7.78-14-433.87-85.865-609.28-140.308h-.26l-1060.8-192.729z"/><path d="M2972.02 26.755l-23.88 3.578c.26.933 38.15 91.62 42.3 131.286l.26 2.644c3.89 37.799 7.01 67.665-21.02 80.265-35.29 15.867-81.74 56.155-83.55 57.866l-1.04.933-.52 1.089-305.68 628.432-40.48 25.51-156.22-91.62-722.68-640.876-20.5 8.244 724.24 642.276 175.94 103.131 61.76-39.043.77-1.711L2907.4 309.86c7.27-6.222 47.75-40.288 77.07-53.51 38.67-17.422 35.03-52.421 30.62-93.02l-.26-2.644c-4.15-40.911-41.26-130.198-42.81-133.931z"/><path d="M2403.47 740.118c-9.08 2.8-23.35 6.066-39.96 9.955-76.81 17.733-219.53 50.866-195.66 123.042 27.77 83.532 30.88 152.755 30.88 178.575 0 30.64-4.93 60.82-64.09 93.95-66.17 37.02-369.26 195.84-430.76 212.95-14.01 3.89-31.65 9.03-50.08 14.31-63.57 18.2-151.02 43.25-186.31 49.16-23.1 3.73-45.15 8.87-51.64 20.53-5.97 10.89 2.85 24.27 29.58 44.65 18.94 14.31 103.8 73.57 202.15 142.17 150.76 105.31 338.63 236.28 365.36 259.15 41 35.16 58.12 67.51 67.99 128.49 9.34 58.64 25.43 165.35 25.43 166.44l24.39-1.25c-.26-1.08-16.09-107.79-25.43-166.44-10.38-63.77-28.55-98-72.4-135.48-27.51-23.49-215.64-154.78-366.92-260.4-98.09-68.44-182.94-127.71-201.63-141.71-24.65-18.82-27.5-27.22-25.43-30.8 2.86-5.13 21.28-8.71 34.78-10.88 37.62-6.07 122.48-30.49 190.46-50.09 18.43-5.29 35.81-10.27 49.83-14.16 67.72-18.97 383-185.26 437.24-215.59 66.43-37.18 71.88-72.18 71.88-104.69 0-26.29-3.12-96.753-31.4-181.529-19.98-59.888 105.35-88.976 180.34-106.243 17.13-4.044 32.18-7.466 42.3-10.577l-10.9-13.533z"/><path d="M2218.97 988.536l-23.87 3.266c29.84 78.868 33.48 112.308.26 182.618-6.23 12.91-10.64 24.11-14.79 33.76-18.16 44.02-24.39 58.79-107.95 94.88-105.35 45.58-1143.316 548.79-1153.695 553.77l15.569 11.51c10.38-5.13 1047.826-508.03 1152.656-553.3 90.82-39.2 98.61-58.02 117.55-103.29 3.89-9.64 8.57-20.69 14.53-33.28 34-72.8 30.1-109.51-.26-189.934z"/><path d="M2179.79 1247.53l-18.94 9.49 459.56 332.26c8.04 6.22 399.09 309.39 500.29 387.64 102.76 79.64 122.48 144.04 138.05 195.68l24.14-2.64c-16.09-53.36-36.33-119.62-142.72-202.22-102.24-79.02-500.3-387.79-500.3-387.79l-.26-.16-459.82-332.26z"/><path d="M3473.35 1373.99c-2.85 2.8-289.59 280.93-325.4 310.95-7.26 6.23-15.05 13.69-23.35 21.78-33.74 32.51-79.67 77.15-165.3 100.8-60.98 16.8-162.7 51.18-261.05 84.46-79.4 26.76-154.39 52.11-194.61 63.62-94.98 27.07-169.45 38.74-268.84 17.58-100.68-21.46-126.37 9.34-143.24 29.56-3.11 3.57-5.96 7-8.82 9.64l20.5 8.09c3.63-3.42 6.75-7.16 10.12-11.2 16.09-19.29 32.7-39.35 113.14-22.24 106.91 22.71 189.43 9.95 287.78-18.2 41-11.67 116.25-37.18 195.91-64.09 97.83-33.13 199.29-67.36 259.23-83.84 92.38-25.51 140.65-72.34 175.94-106.4 8.3-8.09 15.57-15.09 22.57-21 36.07-30.49 314.51-300.22 326.18-311.73l-20.76-7.78zM2689.43 0c-39.44 53.043-55.01 56.154-93.16 63.465-9.34 1.712-19.72 3.734-32.17 6.69-62.28 14.932-668.71 95.819-674.68 96.597l-1.82.311c-2.33.622-228.87 55.066-280.76 58.799-15.83 1.089-28.03-.778-39.97-2.644-31.14-4.822-54.49-5.911-92.63 22.555-22.58 16.799-165.56 126.619-331.37 253.706C922.557 668.72 648.535 879.182 631.928 890.226c-31.139 20.689-35.291 43.866-31.918 79.177 3.374 34.997 128.189 734.677 137.271 778.077 8.563 41.06 41.778 71.08 101.98 91.62 52.157 17.88 112.878 42.31 168.409 87.88 60.46 49.62 395.46 252.46 409.74 261.02l17.38-10.42c-3.37-2.18-347.97-210.62-407.4-259.31-58.384-47.91-121.699-73.42-176.192-91.93-52.677-18.04-82-44.49-89.525-80.58-9.082-43.39-133.897-742.14-137.271-777.135-3.113-32.044.001-51.332 25.69-68.443 17.127-11.356 279.991-213.263 511.978-391.526 165.55-127.086 308.53-236.906 330.85-253.55 31.14-23.022 44.11-21.155 67.47-17.422 12.71 2.022 28.54 4.356 48.78 2.956 53.97-3.734 267.8-55.066 286.22-59.577 36.59-4.822 614.21-81.976 677.53-97.22 11.42-2.8 21.54-4.667 30.36-6.378 44.63-8.555 66.17-14.777 108.21-71.398L2689.43 0z"/><path d="M1788.48 1717.77l-371.85 236.59-221.09 203.31 20.76 8.09 219.53-202.22 370.55-235.66-17.9-10.11zM588.993 22.597L2210.05 810.224l-15.53 11.481L573.47 34.078l15.523-11.48zM2144.24 193.663c-9.6 0-18.42.778-25.17 2.489-30.88 7.311-51.38 25.355-56.05 49.621-4.67 23.955 13.75 66.265 32.7 95.354 18.42 28.466 51.37 29.555 80.18 30.644 5.97.155 12.19.466 18.16.933l3.12.311 2.85-.622c2.34-.467 54.75-13.067 69.54-34.844 13.76-20.533-3.63-60.665-18.94-95.976l-1.81-4.2c-12.98-30.177-63.32-43.71-104.58-43.71zm49.56 164.108c-5.71-.311-11.15-.622-16.6-.778-27.77-.933-45.93-1.711-58.91-21.311-18.16-27.688-35.03-67.976-31.14-88.353 3.64-18.667 18.43-32.355 40.74-37.644 2.34-.467 7.27-1.4 16.09-1.4 26.73 0 70.32 8.555 80.7 32.355l1.82 4.2c13.75 31.577 30.62 70.776 19.98 86.798-8.04 12.6-38.4 22.555-52.68 26.133z"/></g></svg>