<svg width="220" height="44" viewBox="0 0 180 36" fill="none" xmlns="http://www.w3.org/2000/svg"><path d="M18.053 13.163c0 2.626-2.145 4.754-4.79 4.754s-4.79-2.128-4.79-4.754c0-2.625 2.145-4.753 4.79-4.753s4.79 2.128 4.79 4.753z" fill="#0A86F9"/><path fill-rule="evenodd" clip-rule="evenodd" d="M0 13.163C0 5.887 5.932 0 13.263 0c7.332 0 13.263 5.887 13.263 13.163 0 2.596-.773 5.046-2.1 7.094C20.982 25.508 14 36 13.263 36 12.526 36 5.39 25.616 2.1 20.257A13.045 13.045 0 010 13.163zm11.421 17.061c0 1.024.81 1.829 1.842 1.829a1.817 1.817 0 001.842-1.829c0-1.023-.81-1.828-1.842-1.828a1.817 1.817 0 00-1.842 1.828zm1.842-3.72c2.063 0 4.127-.548 5.895-1.536.7-.402.958-1.28.479-1.974-.369-.695-1.29-.95-1.99-.549a9.24 9.24 0 01-4.42 1.134c-1.548 0-3.059-.366-4.422-1.134-.7-.402-1.584-.146-1.99.549-.404.695-.147 1.572.553 1.974a11.914 11.914 0 005.895 1.536zm-7.737-13.34c0 4.24 3.463 7.678 7.737 7.678S21 17.405 21 13.163c0-4.241-3.463-7.678-7.737-7.678s-7.737 3.437-7.737 7.678zM17.98 4.972c0 1.024.81 1.828 1.842 1.828a1.817 1.817 0 001.842-1.828c0-1.024-.81-1.828-1.842-1.828a1.817 1.817 0 00-1.842 1.828z" fill="#0A86F9"/><path class="svg" fill-rule="evenodd" clip-rule="evenodd" d="M96.634 8.626c0 1.16-.835 1.995-1.995 1.995-1.16 0-1.995-.835-1.995-1.995 0-1.16.835-1.994 1.995-1.994 1.16.046 1.995.881 1.995 1.994zm-3.85 15.124V12.013h3.757V23.75h-3.757zm-6.31-16.144v16.19h3.758V7.607h-3.758zM46.345 20.549v3.248H36V8.534h3.897v12.015h6.448zm13.408-2.644c0 3.618-2.552 6.03-6.403 6.03-3.85 0-6.448-2.412-6.448-6.03 0-3.619 2.552-5.985 6.448-5.985 3.805-.046 6.403 2.366 6.403 5.985zm-9.047.046c0 1.81 1.067 3.062 2.644 3.062 1.532 0 2.599-1.206 2.599-3.062 0-1.81-1.067-3.062-2.599-3.062-1.577 0-2.644 1.253-2.644 3.062zm18.557-1.81l2.69-1.623c-1.02-1.67-2.922-2.644-5.195-2.644-3.665 0-6.124 2.412-6.124 6.03 0 3.573 2.459 5.985 6.077 5.985 2.46 0 4.361-1.02 5.335-2.737L69.31 19.53c-.51.927-1.345 1.345-2.412 1.345-1.438 0-2.459-1.16-2.459-2.97 0-1.762 1.02-2.968 2.459-2.968 1.02 0 1.81.464 2.366 1.206zm14.845-.045v7.654h-3.665v-1.345c-.742 1.02-1.995 1.53-3.618 1.53-2.505 0-4.036-1.53-4.036-3.664 0-2.227 1.577-3.526 4.5-3.572h3.108v-.186c0-1.16-.742-1.856-2.273-1.856-.974 0-2.273.371-3.526.975l-1.067-2.506c1.81-.835 3.48-1.345 5.428-1.345 3.247.093 5.103 1.67 5.15 4.315zm-3.711 3.71V18.74H78.03c-1.114 0-1.717.371-1.717 1.252 0 .835.604 1.392 1.67 1.392 1.16 0 2.181-.65 2.413-1.577zm28.531 1.114h-5.938l5.752-6.634v-2.273H98.49v2.83h5.567l-5.8 6.634v2.273h10.671v-2.83zm12.804-1.995h-8.258c.371 1.392 1.392 2.18 2.784 2.18 1.02 0 2.041-.417 2.83-1.205l1.994 1.948c-1.206 1.3-2.969 2.088-5.103 2.088-3.85 0-6.216-2.413-6.216-5.985 0-3.618 2.505-6.03 6.124-6.03 4.036-.047 6.123 2.69 5.845 7.004zm-3.619-2.04c0-1.439-.927-2.367-2.273-2.367-1.299 0-2.18.974-2.459 2.366h4.732zm6.264 7.051c1.067 0 1.809-.696 1.809-1.81 0-1.066-.742-1.809-1.809-1.809-1.068 0-1.81.743-1.81 1.81 0 1.067.742 1.81 1.81 1.81zm23.102-7.237v7.098h-1.716v-6.634c0-2.042-1.206-3.248-3.201-3.248-2.366.046-3.758 1.763-3.758 4.222v5.66h-1.716v-6.634c0-2.042-1.16-3.248-3.201-3.248-2.366.046-3.758 1.763-3.758 4.222v5.66h-1.67V12.29h1.67v2.598c.742-1.809 2.319-2.644 4.361-2.644 2.18 0 3.618 1.113 4.129 3.016.742-2.042 2.319-2.97 4.546-3.016 2.691 0 4.314 1.67 4.314 4.454zm8.119 7.144c3.387 0 5.799-2.366 5.799-5.799 0-3.433-2.412-5.799-5.799-5.799-3.387 0-5.799 2.366-5.799 5.799 0 3.433 2.412 5.799 5.799 5.799zm0-1.531c-2.412 0-4.129-1.716-4.129-4.268 0-2.505 1.717-4.268 4.129-4.268 2.412 0 4.129 1.763 4.129 4.268s-1.717 4.268-4.129 4.268zm19.995-4.268c0 3.387-2.227 5.799-5.474 5.799-2.042 0-3.619-.928-4.454-2.552v2.46h-1.717V7.605h1.717v7.19c.835-1.623 2.412-2.551 4.407-2.551 3.248 0 5.521 2.366 5.521 5.799zm-1.717 0c0-2.459-1.716-4.268-4.082-4.268-2.413 0-4.129 1.81-4.129 4.268 0 2.505 1.716 4.268 4.129 4.268 2.366 0 4.082-1.81 4.082-4.268zm5.011-7.887c.649 0 1.113-.464 1.113-1.16 0-.695-.464-1.16-1.113-1.16-.65 0-1.114.511-1.114 1.16 0 .65.464 1.16 1.114 1.16zm.881 2.134h-1.67v11.506h1.67V12.29z" fill="#ffff"/></svg>