<svg width="52" height="32" viewBox="0 0 52 32" fill="none" xmlns="http://www.w3.org/2000/svg"><rect width="52" height="32" rx="5" fill="#fff"/><path d="M15.439 27.974v-1.595a.957.957 0 00-.268-.73.932.932 0 00-.72-.28.962.962 0 00-.882.452.927.927 0 00-.83-.452.821.821 0 00-.735.378v-.314h-.546v2.54h.551v-1.397a.604.604 0 01.15-.484.588.588 0 01.465-.191c.362 0 .546.239.546.67v1.413h.551v-1.408a.603.603 0 01.362-.631.585.585 0 01.253-.044c.373 0 .551.239.551.67v1.413l.552-.01zm8.158-2.54h-.898v-.772h-.552v.771h-.499v.505h.51v1.17c0 .59.226.94.871.94.242.001.479-.067.683-.196l-.157-.474a1 1 0 01-.483.144c-.263 0-.363-.17-.363-.425v-1.159h.893l-.005-.505zm4.658-.065a.734.734 0 00-.662.372v-.308h-.54v2.54h.545V26.55c0-.42.179-.654.525-.654a.881.881 0 01.342.064l.168-.531a1.155 1.155 0 00-.389-.07l.01.011zm-7.043.266a1.86 1.86 0 00-1.023-.266c-.636 0-1.05.309-1.05.814 0 .414.304.67.866.749l.262.037c.3.043.441.122.441.266 0 .197-.2.308-.572.308a1.33 1.33 0 01-.835-.265l-.263.43c.319.225.7.34 1.087.33.725 0 1.145-.346 1.145-.83 0-.483-.33-.68-.877-.76l-.262-.037c-.237-.032-.426-.08-.426-.25 0-.17.179-.297.478-.297.277.003.548.078.788.218l.241-.447zm14.628-.266a.734.734 0 00-.661.372v-.308h-.541v2.54h.546V26.55c0-.42.178-.654.525-.654a.881.881 0 01.341.064l.169-.531a1.156 1.156 0 00-.39-.07l.011.011zm-7.037 1.33a1.298 1.298 0 00.38.963 1.266 1.266 0 00.96.365 1.3 1.3 0 00.903-.303l-.263-.447a1.094 1.094 0 01-.656.229.802.802 0 01-.528-.26.822.822 0 010-1.106.802.802 0 01.528-.26c.237.002.468.082.656.228l.263-.446a1.302 1.302 0 00-.903-.303 1.254 1.254 0 00-.96.365 1.284 1.284 0 00-.38.963v.011zm5.115 0v-1.266h-.546v.308a.954.954 0 00-.788-.372c-.348 0-.682.14-.928.39a1.337 1.337 0 000 1.879c.246.249.58.389.928.389a.943.943 0 00.788-.372v.308h.546v-1.265zm-2.032 0a.775.775 0 01.497-.677.75.75 0 01.811.193.771.771 0 01-.547 1.296.745.745 0 01-.556-.238.764.764 0 01-.205-.575zm-6.59-1.33c-.349.005-.68.15-.923.403a1.338 1.338 0 00.026 1.879c.25.246.585.38.933.376.378.02.75-.104 1.043-.346l-.263-.409a1.186 1.186 0 01-.73.266.69.69 0 01-.5-.157.706.706 0 01-.25-.465h1.863v-.213c0-.797-.488-1.328-1.192-1.328l-.008-.006zm0 .495a.616.616 0 01.583.376c.032.076.05.158.052.24h-1.313c.01-.17.085-.33.21-.446a.642.642 0 01.457-.17h.01zm13.682.84v-2.291h-.525v1.328a.956.956 0 00-.788-.372c-.348 0-.682.14-.928.39a1.337 1.337 0 000 1.879c.246.249.58.389.928.389a.942.942 0 00.788-.372v.308h.525v-1.26zm.911.9a.259.259 0 01.181.072.25.25 0 01-.081.41.243.243 0 01-.1.02.26.26 0 01-.256-.252c0-.034.007-.067.02-.098a.268.268 0 01.055-.08.262.262 0 01.19-.072h-.009zm0 .45a.184.184 0 00.137-.059.198.198 0 000-.266.187.187 0 00-.213-.043.191.191 0 00-.063.043.197.197 0 000 .266c.018.018.04.033.063.043a.191.191 0 00.084.015h-.008zm.016-.317a.104.104 0 01.068.022.068.068 0 01.024.056.064.064 0 01-.019.047.091.091 0 01-.055.024l.076.088h-.06l-.07-.088h-.024v.088h-.05v-.234l.11-.003zm-.058.045v.064h.058c.01.003.021.003.032 0a.027.027 0 000-.024.027.027 0 000-.024.055.055 0 00-.032 0l-.058-.016zm-2.888-1.079a.775.775 0 01.497-.676.75.75 0 01.811.193.771.771 0 01.147.83.766.766 0 01-.694.467.747.747 0 01-.718-.504.77.77 0 01-.043-.31zm-18.44 0v-1.27h-.547v.308a.954.954 0 00-.787-.372c-.348 0-.682.14-.929.39a1.337 1.337 0 000 1.879c.247.249.58.389.929.389a.943.943 0 00.787-.372v.308h.546v-1.26zm-2.033 0a.775.775 0 01.498-.676.75.75 0 01.81.193.771.771 0 01-.546 1.297.747.747 0 01-.56-.236.763.763 0 01-.207-.578h.005z" fill="#231F20"/><path d="M29.302 6.072h-8.27v15.045h8.27V6.072z" fill="#FF5F00"/><path d="M21.557 13.597a9.646 9.646 0 01.948-4.184 9.531 9.531 0 012.662-3.34 9.353 9.353 0 00-9.972-1.083 9.493 9.493 0 00-3.882 3.53 9.653 9.653 0 00-1.44 5.075c0 1.795.5 3.554 1.44 5.076a9.494 9.494 0 003.881 3.53 9.354 9.354 0 009.973-1.084 9.53 9.53 0 01-2.662-3.339 9.646 9.646 0 01-.948-4.181z" fill="#EB001B"/><path d="M40.462 13.596c0 1.795-.5 3.554-1.44 5.076a9.494 9.494 0 01-3.882 3.53 9.354 9.354 0 01-9.973-1.085 9.548 9.548 0 002.661-3.34 9.664 9.664 0 000-8.364 9.548 9.548 0 00-2.661-3.34 9.354 9.354 0 019.973-1.084 9.493 9.493 0 013.882 3.528 9.654 9.654 0 011.44 5.077v.002zm-.904 5.927v-.309h.124v-.064h-.313v.064h.134v.309h.055zm.607 0v-.373h-.095l-.11.266-.11-.266h-.084v.373h.068v-.28l.102.242h.071l.103-.242v.282l.055-.002z" fill="#F79E1B"/></svg>