<svg width="52" height="32" viewBox="0 0 52 32" fill="none" xmlns="http://www.w3.org/2000/svg"><rect width="52" height="32" rx="5" fill="#fff"/><path d="M6.577 23.733c-.12-.379-.286-.637-.673-.637a.394.394 0 00-.406.387v.037c0 .277.185.406.554.572.553.268.83.461.83.886 0 .59-.544.894-1.052.894a1.67 1.67 0 01-.765-.184c-.028-.185-.093-.544-.12-.756l.184-.037c.12.415.342.747.794.747a.427.427 0 00.452-.406v-.028c0-.286-.176-.442-.517-.608-.452-.222-.82-.425-.82-.895 0-.47.396-.83 1.004-.83.213.009.416.037.618.083.019.157.065.562.093.72l-.176.055zm3.117 1.512c-.415.517-.867.627-1.07.627-.783 0-1.263-.645-1.263-1.392a1.62 1.62 0 01.415-1.126c.24-.285.59-.46.96-.47.543.01.986.452.986 1.005-.01.13-.028.185-.129.213-.13.027-.96.083-1.725.11-.018.867.507 1.218.969 1.218.286-.01.553-.13.747-.332l.11.147zm-1.106-2.121c-.296 0-.59.277-.683.802.36 0 .72 0 1.107-.018.12 0 .157-.037.157-.13.009-.34-.222-.645-.581-.654zm4.032 2.093c-.286.378-.72.655-1.107.655-.821 0-1.31-.664-1.31-1.356 0-.507.221-.931.655-1.263a1.73 1.73 0 01.987-.37.936.936 0 01.6.176c.064.037.11.11.1.184a.337.337 0 01-.23.296c-.027 0-.055-.01-.12-.065a.952.952 0 00-.655-.268c-.424 0-.802.36-.802 1.034-.01.894.609 1.199.987 1.199.268 0 .489-.074.784-.36l.11.138zm3.494.434a8.97 8.97 0 00-.987.222v-.498c-.35.285-.636.498-.987.498-.433 0-.811-.268-.811-.969V23.65c0-.35-.056-.388-.212-.425l-.185-.037v-.165c.314-.019.618-.065.922-.12-.018.203-.018.516-.018.94v.877c0 .572.295.728.59.728a1.01 1.01 0 00.701-.313V23.63c0-.35-.073-.396-.295-.424l-.203-.028v-.166a7.45 7.45 0 001.015-.12v2.168c0 .323.055.369.295.378l.184.01-.009.202zm1.819.147h-1.485v-.184c.406-.037.443-.074.443-.49v-1.337c0-.424-.028-.442-.397-.488v-.166c.314-.047.618-.139.913-.268v.71c.221-.332.498-.691.821-.691.24 0 .378.147.378.313a.449.449 0 01-.221.36c-.056.037-.12.037-.166-.01-.102-.1-.175-.166-.286-.166-.139 0-.378.203-.517.526v1.218c0 .424.037.461.526.498l-.01.175zm.959.001v-.185c.406-.037.452-.074.452-.507v-1.328c0-.397-.019-.425-.406-.49v-.156a4.48 4.48 0 00.913-.258v2.232c0 .442.046.47.461.507v.184h-1.42zm.673-3.56a.36.36 0 01-.341-.342c0-.194.147-.35.341-.36h.01c.184 0 .331.157.331.341v.01c-.009.193-.156.35-.34.35zm2.307 3.551a.692.692 0 01-.277.082c-.415 0-.636-.249-.636-.765v-1.882h-.443l-.028-.083.175-.184h.296v-.545c.12-.129.313-.295.433-.424l.102.01c-.01.267-.019.645-.019.959h.738a.21.21 0 01-.037.267h-.7v1.651c0 .526.202.618.377.618.139-.01.268-.037.397-.101l.055.166-.433.23zm3.67-2.657c-.332.055-.406.101-.572.47-.166.37-.332.803-.775 1.928a17.69 17.69 0 00-.646 1.77c-.037.14-.11.167-.193.167-.203 0-.397-.148-.397-.314 0-.083.046-.138.138-.221.176-.13.323-.286.434-.48.138-.267.23-.498.267-.58a.382.382 0 00-.009-.268c-.249-.738-.6-1.531-.793-1.993-.148-.36-.203-.433-.553-.48v-.174h1.3v.175c-.295.046-.332.11-.249.35l.627 1.587a23.25 23.25 0 00.572-1.568c.074-.25.037-.314-.341-.37v-.174h1.18l.01.175z" fill="#707070"/><path d="M29.472 15.034a.517.517 0 00-.175-.452c-.12-.11-.304-.157-.553-.157a1.045 1.045 0 00-.6.157.612.612 0 00-.267.388.347.347 0 00.157.396c.156.102.332.166.507.203l.415.102c.249.055.48.147.7.276.185.111.342.268.444.462.101.212.12.451.073.682a1.547 1.547 0 01-.664 1.052c-.369.258-.848.396-1.448.396s-1.042-.129-1.337-.406c-.305-.267-.425-.664-.35-1.18h.986c-.027.24.037.424.194.544.184.13.406.194.636.184.23.01.452-.046.655-.166a.647.647 0 00.305-.433.356.356 0 00-.148-.378 1.606 1.606 0 00-.572-.222l-.507-.129c-.388-.101-.683-.249-.886-.461-.203-.212-.276-.489-.212-.849a1.49 1.49 0 01.37-.765 1.96 1.96 0 01.737-.508 2.53 2.53 0 01.978-.184c.313-.01.627.055.913.184.23.111.424.287.544.517.12.24.157.507.101.766l-.996-.019zm2.168 3.496c-.342 0-.619-.092-.812-.277-.203-.184-.268-.452-.212-.811.027-.24.138-.462.295-.637.157-.157.35-.277.562-.341.222-.074.462-.12.692-.138a5.93 5.93 0 00.692-.102c.12-.018.221-.101.24-.221v-.019a.407.407 0 00-.083-.35.452.452 0 00-.37-.12.794.794 0 00-.451.12.686.686 0 00-.268.295l-.913-.074c.12-.332.35-.609.646-.784.341-.203.72-.304 1.116-.286.249 0 .498.037.729.13a.995.995 0 01.498.396c.12.184.147.415.101.7l-.406 2.454h-.959l.083-.498h-.028c-.12.176-.276.314-.46.415a1.484 1.484 0 01-.692.148zm.405-.692a.894.894 0 00.572-.194.777.777 0 00.295-.48l.065-.387a.829.829 0 01-.194.074 7.304 7.304 0 01-.276.056l-.259.037a1.134 1.134 0 00-.452.147.42.42 0 00-.212.323.32.32 0 00.102.313c.101.084.23.12.36.111zm5.018-3.006l-.13.756h-.718l-.48 2.868H34.73l.48-2.868h-.517l.129-.756h.516l.046-.259c.065-.396.222-.692.48-.885.258-.194.572-.295.904-.295.138 0 .277.009.415.037.092.018.184.036.277.064l-.296.756c-.046-.018-.092-.027-.138-.037-.055-.009-.11-.018-.175-.018a.453.453 0 00-.323.101.556.556 0 00-.138.286l-.037.24h.71v.01zm1.52 3.698c-.563 0-.969-.166-1.236-.498-.268-.332-.35-.793-.25-1.365.056-.35.185-.683.379-.978.184-.277.433-.498.72-.655.294-.157.627-.24.968-.24.286-.009.572.065.83.203.24.139.415.35.507.61.102.276.12.617.056 1.023l-.047.277h-2.462v.027c-.046.286-.01.498.11.637.12.138.314.212.563.212a.963.963 0 00.452-.11.79.79 0 00.314-.314l.922.064c-.13.332-.369.618-.673.812a2.092 2.092 0 01-1.153.295zm-.425-2.25h1.513a.655.655 0 00-.11-.536.596.596 0 00-.499-.212.883.883 0 00-.405.102 1.02 1.02 0 00-.323.276c-.083.111-.139.24-.176.37z" fill="#0D0D0D"/><path d="M23.355 8.402h-.332a1.022 1.022 0 00-.203-.443 1.13 1.13 0 00-.378-.313 1.181 1.181 0 00-1.134.064 1.29 1.29 0 00-.453.517c-.12.267-.175.553-.166.84-.009.285.047.58.166.839.093.212.25.396.453.516.34.212.765.23 1.134.065a1.072 1.072 0 00.581-.747h.332c-.037.212-.12.415-.249.6a1.458 1.458 0 01-.489.424 1.55 1.55 0 01-1.485-.074 1.509 1.509 0 01-.553-.646 2.35 2.35 0 01-.203-.978c-.01-.341.055-.673.203-.977a1.5 1.5 0 01.553-.646 1.547 1.547 0 011.485-.074c.194.102.36.25.49.424.119.185.211.388.248.61zm.639 2.472V8.172h.305v.415h.018a.713.713 0 01.286-.332.884.884 0 01.452-.13c.064 0 .12.01.184.02a.392.392 0 01.148.064l-.11.267a.596.596 0 00-.25-.046.79.79 0 00-.378.092.658.658 0 00-.35.6v1.743h-.305v.01zm2.802.056a1.17 1.17 0 01-.655-.175 1.15 1.15 0 01-.424-.49 1.626 1.626 0 01-.148-.719c-.01-.249.046-.498.148-.728.092-.203.23-.37.415-.498a1.145 1.145 0 011.171-.046c.185.1.323.248.424.433.12.23.176.489.166.747v.157h-2.01c-.01.267.083.535.258.747a.839.839 0 00.655.277.774.774 0 00.47-.13.721.721 0 00.259-.313l.295.092a.94.94 0 01-.36.443.999.999 0 01-.664.203zm-.913-1.587h1.688c0-.166-.037-.322-.102-.47a.834.834 0 00-.286-.332.708.708 0 00-.424-.12.796.796 0 00-.434.13.954.954 0 00-.304.331.997.997 0 00-.138.461zm3.605 1.587c-.203 0-.406-.056-.58-.176a1.12 1.12 0 01-.388-.489 1.695 1.695 0 01-.139-.737c-.009-.25.046-.499.139-.73a1.19 1.19 0 01.387-.488 1.023 1.023 0 01.996-.083.84.84 0 01.259.212c.064.074.11.157.147.25h.028V7.276h.313v3.597h-.304v-.498h-.037a.873.873 0 01-.157.25.737.737 0 01-.267.211.811.811 0 01-.397.093zm.037-.286a.711.711 0 00.443-.148.88.88 0 00.286-.397 1.749 1.749 0 00.009-1.153.907.907 0 00-.277-.387.776.776 0 00-.904 0 .862.862 0 00-.276.397 1.636 1.636 0 00-.093.562c0 .194.028.388.093.572a.881.881 0 00.286.397.64.64 0 00.433.157zm2.122-2.933a.222.222 0 01-.166-.065.21.21 0 01-.074-.156c0-.065.028-.12.074-.157a.222.222 0 01.166-.065c.065 0 .12.019.166.065a.211.211 0 01.074.157c0 .064-.028.12-.074.156-.037.047-.101.065-.166.065zm-.157 3.164V8.172h.314v2.703h-.314zm2.14-2.703v.277h-.572v1.715c0 .166.047.286.12.35a.461.461 0 00.286.093c.037 0 .074 0 .102-.01a.16.16 0 00.073-.018l.065.286c-.037.01-.074.028-.11.028a.779.779 0 01-.499-.065.617.617 0 01-.36-.6v-1.78h-.405v-.276h.406v-.646h.313v.646h.581zm4.863.23h-.332a1.02 1.02 0 00-.203-.442 1.13 1.13 0 00-.378-.314 1.181 1.181 0 00-1.134.065 1.282 1.282 0 00-.452.516 1.89 1.89 0 00-.166.84c-.01.285.046.58.166.839.092.212.249.396.452.516.34.213.765.231 1.134.065.148-.074.277-.175.378-.304a1.08 1.08 0 00.203-.443h.332c-.037.212-.12.415-.249.6a1.447 1.447 0 01-.489.424c-.48.23-1.033.203-1.485-.074a1.509 1.509 0 01-.553-.646 2.35 2.35 0 01-.203-.977c-.01-.342.055-.674.203-.978.12-.268.314-.49.553-.646a1.547 1.547 0 011.485-.074c.194.102.36.25.49.434.128.175.211.378.248.6zm1.392 2.528a1.03 1.03 0 01-.443-.092.85.85 0 01-.323-.277.746.746 0 01-.12-.443.628.628 0 01.13-.424.883.883 0 01.368-.24c.176-.055.36-.101.535-.12.231-.027.406-.055.526-.073.12-.019.185-.083.185-.185v-.074a.57.57 0 00-.166-.433.677.677 0 00-.47-.157.774.774 0 00-.471.13.696.696 0 00-.259.303l-.295-.11a.87.87 0 01.25-.35 1.23 1.23 0 01.36-.194c.128-.037.267-.056.405-.056.11 0 .212.019.323.037.11.028.221.074.313.138a.666.666 0 01.231.277c.065.139.092.295.092.452v1.836h-.313v-.425h-.019a.928.928 0 01-.295.333.931.931 0 01-.544.147zm.046-.286a.892.892 0 00.434-.11.875.875 0 00.285-.296.91.91 0 00.102-.406v-.387a.375.375 0 01-.175.074 7.319 7.319 0 01-.277.055l-.258.037a1.45 1.45 0 00-.526.157.384.384 0 00-.194.36.439.439 0 00.175.378c.12.101.277.147.434.138zm1.892.231V8.172h.304v.415h.018a.713.713 0 01.286-.332.884.884 0 01.452-.13c.065 0 .12.01.185.02a.412.412 0 01.147.064l-.11.267a.596.596 0 00-.25-.046.79.79 0 00-.377.093.658.658 0 00-.351.6v1.742h-.304v.01zm2.682.055c-.203 0-.406-.056-.581-.176a1.12 1.12 0 01-.388-.489 1.697 1.697 0 01-.138-.737c-.01-.25.046-.499.138-.73a1.19 1.19 0 01.388-.488 1.023 1.023 0 01.996-.083.84.84 0 01.258.212c.065.074.11.157.148.25h.027V7.276h.314v3.597h-.304v-.498h-.037a.873.873 0 01-.157.25.738.738 0 01-.267.211.812.812 0 01-.397.093zm.037-.286a.711.711 0 00.443-.148.88.88 0 00.285-.397 1.749 1.749 0 00.01-1.153.836.836 0 00-.277-.387.776.776 0 00-.904 0 .863.863 0 00-.277.397 1.636 1.636 0 00-.092.562c0 .194.028.388.092.572a.881.881 0 00.286.397.645.645 0 00.434.157z" fill="#8E8E8E"/><path d="M17.59 7.443a9.932 9.932 0 01-1.882.185c-3.256 0-4.483-1.873-4.566-2.01v-.01.01c-.083.137-1.31 2.01-4.566 2.01a9.859 9.859 0 01-1.881-.185s-.821 9.326 6.456 12.379c7.26-3.053 6.439-12.379 6.439-12.379zm-6.457 11.52V12.95H6.124c-.064-.203-.12-.406-.175-.609a16.163 16.163 0 01-.507-3.984c.378.046.756.064 1.125.064 2.38 0 3.819-.904 4.575-1.605v6.134h5.009c-.895 2.878-2.583 4.898-5.018 6.014zm17.25 6.864v-.13c.36-.037.37-.064.37-.525v-1.79c-.36.803-.895 1.993-1.08 2.445h-.12c-.175-.462-.646-1.605-.977-2.399-.074 1.522-.074 1.854-.074 1.956 0 .249.11.286.415.313v.13h-1.052v-.13c.259-.027.36-.083.397-.322.027-.185.037-.36.147-1.947.019-.23-.027-.313-.415-.35v-.13h.803l.96 2.196 1.014-2.195h.802v.129c-.378.046-.424.083-.415.396l.019 1.698c.018.46.027.48.415.525v.13h-1.209zm3.911-.711c-.027.11-.147.581-.194.71h-2.176v-.129c.415-.037.442-.073.442-.433V23.52c0-.387-.046-.415-.378-.442v-.13h1.375c.424 0 .59-.009.645-.009 0 .102.019.443.037.683l-.138.018a1.63 1.63 0 00-.139-.35c-.073-.139-.166-.166-.424-.166h-.396c-.139 0-.148.01-.148.148v.968h.48c.313 0 .34-.065.396-.369h.148v.922h-.148c-.055-.322-.092-.369-.406-.369h-.48v.858c0 .314.084.35.314.35h.397c.267 0 .314-.036.415-.156.101-.13.184-.268.25-.415l.128.055zm2.647-1.457a1.888 1.888 0 00-.147-.378c-.074-.111-.111-.148-.36-.148h-.415v2.14c0 .35.037.397.452.424v.13h-1.328v-.13c.405-.027.442-.064.442-.424v-2.14h-.378c-.24 0-.313.028-.387.157-.065.12-.111.24-.148.369h-.138c.027-.277.055-.572.064-.812h.111c.065.102.12.102.24.102H34.7a.241.241 0 00.23-.102h.112c0 .203.018.535.037.793l-.139.019zm3.143 2.204c-.055 0-.101 0-.157-.01-.369-.018-.535-.11-.72-.368-.165-.23-.322-.507-.46-.738-.083-.138-.139-.166-.35-.166h-.14v.683c0 .369.047.396.397.433v.13h-1.217v-.13c.36-.037.396-.055.396-.433V23.51c0-.369-.046-.387-.396-.424v-.13h1.153c.332 0 .553.037.728.157a.68.68 0 01.305.59c0 .379-.25.619-.572.757.074.138.267.434.397.627.101.157.221.314.35.452a.64.64 0 00.314.203l-.028.12zm-1.642-1.439c.222 0 .37-.037.48-.129a.644.644 0 00.24-.544c0-.47-.305-.646-.628-.646a.4.4 0 00-.23.046c-.037.028-.046.074-.046.185v1.079l.184.01zm1.82 1.402v-.129c.36-.037.396-.055.396-.433V23.52c0-.378-.037-.396-.396-.433v-.13h1.217v.13c-.36.037-.396.055-.396.433v1.744c0 .378.036.396.396.433v.13h-1.217zm4.297-.719a5.86 5.86 0 01-.24.673 3.996 3.996 0 01-.812.11c-1.08 0-1.614-.719-1.614-1.475 0-.904.692-1.531 1.697-1.531.286.01.563.046.84.101.018.203.045.48.082.692l-.147.028c-.092-.304-.203-.48-.425-.572a1.264 1.264 0 00-.451-.083c-.71 0-1.089.544-1.089 1.264 0 .848.443 1.392 1.135 1.392.433 0 .664-.203.894-.654l.13.055zm1.991-1.476c-.074-.286-.203-.581-.618-.581-.332 0-.46.24-.46.47 0 .295.193.452.562.637.516.267.765.48.765.904 0 .47-.406.83-.987.83-.24-.01-.47-.055-.691-.148a5.602 5.602 0 01-.12-.682l.147-.037c.092.295.295.691.747.691a.473.473 0 00.498-.442v-.055c0-.323-.175-.462-.562-.674-.461-.249-.729-.461-.729-.885 0-.406.332-.775.932-.775.203.01.396.037.59.083.018.157.037.35.074.636l-.148.028zm.73-.295c0-.065.01-.13.037-.185.018-.055.055-.101.092-.147a.386.386 0 01.139-.102.438.438 0 01.34 0 .302.302 0 01.14.102c.036.046.073.092.091.147.019.056.037.12.037.185a.407.407 0 01-.037.184c-.018.056-.055.102-.092.148a.386.386 0 01-.138.101.438.438 0 01-.342 0 .386.386 0 01-.138-.101c-.037-.046-.074-.092-.092-.148a.412.412 0 01-.037-.184zm.074 0a.46.46 0 00.028.157.35.35 0 00.083.12.353.353 0 00.396.083.353.353 0 00.194-.203.468.468 0 000-.314.352.352 0 00-.194-.203.36.36 0 00-.397.083.35.35 0 00-.082.12.51.51 0 00-.028.157zm.369.046h-.093v.212h-.092v-.526h.176c.055 0 .101.01.147.037a.149.149 0 01.056.12.131.131 0 01-.084.12c.028.01.047.028.065.046.01.028.018.046.018.074v.037c0 .027 0 .055.01.083v.01h-.093c-.009-.02-.009-.029-.009-.047v-.083c0-.028-.009-.046-.018-.065a.27.27 0 00-.083-.018zm-.093-.083h.102c.018 0 .046-.01.065-.018.018-.01.027-.028.027-.056a.084.084 0 00-.027-.064.255.255 0 00-.083-.019h-.084v.157z" fill="#839FC7"/></svg>