<svg width="53" height="32" viewBox="0 0 53 32" fill="none" xmlns="http://www.w3.org/2000/svg"><rect width="52" height="32" rx="5" fill="#fff"/><path fill-rule="evenodd" clip-rule="evenodd" d="M17.934 21.344h-2.746l-2.06-8.088c-.097-.372-.305-.7-.61-.855A8.763 8.763 0 0010 11.545v-.312h4.425c.61 0 1.068.468 1.144 1.011l1.069 5.834 2.745-6.845h2.67l-4.119 10.111zm5.645 0h-2.593l2.136-10.11h2.593l-2.136 10.11zm5.492-7.31c.076-.544.534-.856 1.068-.856a4.712 4.712 0 012.518.467l.458-2.177A6.403 6.403 0 0030.75 11c-2.517 0-4.35 1.4-4.35 3.344 0 1.479 1.298 2.255 2.214 2.723.991.467 1.373.778 1.296 1.244 0 .7-.763 1.011-1.525 1.011-.916 0-1.832-.233-2.67-.622l-.458 2.178c.916.388 1.907.544 2.823.544 2.823.077 4.577-1.322 4.577-3.422 0-2.645-3.586-2.8-3.586-3.966zm12.663 7.31l-2.06-10.11h-2.212a1.15 1.15 0 00-1.068.777l-3.814 9.333h2.67l.533-1.477h3.28l.306 1.477h2.365zm-3.89-7.388l.762 3.81H36.47l1.374-3.81z" fill="#172B85"/></svg>