<svg width="52" height="32" viewBox="0 0 52 32" fill="none" xmlns="http://www.w3.org/2000/svg"><rect width="52" height="32" rx="5" fill="#fff"/><path d="M6.06 23.876v-4.565H4.709v-1.413h4.35v1.413H7.706v4.565H6.06zm3.802 0v-5.978h1.72c.673 0 1.143.03 1.408.092.265.061.494.164.687.308.217.163.384.372.5.625.117.253.176.532.176.837 0 .463-.115.84-.344 1.13-.23.29-.565.482-1.005.577l1.646 2.41h-1.86l-1.385-2.34v2.34H9.862zm1.543-3.152h.305c.354 0 .613-.06.777-.18.163-.12.245-.307.245-.564 0-.3-.076-.512-.228-.639-.153-.126-.41-.19-.77-.19h-.33v1.573z" fill="#00AFD8"/><path d="M14.567 23.876l2.083-5.978h2.062l2.086 5.978h-1.637l-.305-1.07h-2.338l-.314 1.07h-1.637zm2.305-2.234h1.637l-.614-1.972a4.936 4.936 0 01-.078-.29 428.43 428.43 0 00-.128-.514l-.105.42a12.64 12.64 0 01-.105.384l-.607 1.972zm4.503 2.234v-5.978h1.588l2.28 3.075c.044.062.116.188.217.377.1.19.21.415.332.676-.03-.22-.054-.44-.073-.661a6.64 6.64 0 01-.022-.515v-2.952h1.58v5.978h-1.58l-2.28-3.087a3.39 3.39 0 01-.221-.378c-.1-.189-.21-.412-.328-.667.033.25.057.472.072.665.014.172.022.343.023.515v2.952h-1.588zm7.464-1.931c.245.275.486.48.724.616.237.137.475.204.711.204.22 0 .4-.058.542-.175a.553.553 0 00.213-.445c0-.199-.062-.352-.184-.46-.122-.107-.4-.218-.83-.332-.592-.158-1.01-.364-1.254-.617-.245-.253-.367-.6-.367-1.041 0-.572.193-1.038.58-1.399.385-.36.886-.541 1.502-.541.333 0 .648.044.946.133.299.088.581.222.848.402l-.516 1.172a2.17 2.17 0 00-.575-.358 1.537 1.537 0 00-.583-.12.777.777 0 00-.483.14.434.434 0 00-.185.362c0 .15.054.27.162.36.11.09.319.175.63.257l.073.02c.671.18 1.113.377 1.324.592.143.148.252.324.326.53.074.205.111.433.111.683 0 .635-.21 1.144-.63 1.53-.421.385-.982.577-1.683.577a3 3 0 01-1.148-.212 3.255 3.255 0 01-.997-.666l.743-1.212zm4.639 1.931v-5.978h3.699v1.31h-2.095v1.038h1.975v1.282h-1.975v2.348h-1.604zm4.593 0v-5.978h3.7v1.31h-2.096v1.038h1.976v1.282h-1.976v1.009h2.095v1.339h-3.699zm4.788 0v-5.978h1.72c.673 0 1.142.03 1.407.092a1.8 1.8 0 01.687.308c.218.163.384.372.501.625.117.253.175.532.175.837 0 .463-.114.84-.344 1.129-.23.29-.564.483-1.004.578l1.645 2.409h-1.86l-1.385-2.34v2.34H42.86zm1.542-3.152h.305c.355 0 .614-.06.777-.18.164-.12.246-.308.246-.564 0-.3-.076-.512-.23-.639-.152-.126-.408-.19-.768-.19h-.33v1.573z" fill="#00AFD8"/><path d="M23.577 8.18l1.096 4.105c.051.184.1.377.143.578.043.2.089.43.137.69.06-.307.11-.56.152-.758.041-.199.082-.369.122-.51l1.024-4.106h2.4l-2.465 8.636h-2.204l-1.078-3.687a15.93 15.93 0 01-.197-.76c-.04-.17-.071-.302-.095-.396l-.083.348c-.092.381-.161.65-.209.808l-1.06 3.687h-2.21l-2.46-8.636h2.4l1.001 4.13c.048.212.095.424.14.636.046.213.089.43.128.655a37.006 37.006 0 01.304-1.292l1.096-4.129h1.918zm5.956 8.635V8.179h2.4v8.636h-2.4zm4.318 0V8.179h2.484c.973 0 1.65.044 2.034.133.383.088.714.237.992.445.313.236.555.537.723.903.17.365.253.769.253 1.209 0 .668-.165 1.212-.497 1.63-.331.42-.815.698-1.45.835l2.377 3.48H38.08l-2.001-3.38v3.38H33.85zm2.228-4.554h.44c.513 0 .887-.086 1.123-.26.237-.172.355-.444.355-.813 0-.433-.11-.74-.33-.924-.221-.182-.591-.274-1.112-.274h-.476v2.271zm5.593 4.554V8.179h5.343v1.894h-3.026v1.498h2.853v1.852h-2.853v1.457h3.026v1.935h-5.343z" fill="#006E90"/><path d="M4.78 8.116h10.879v1.71H4.778v-1.71z" fill="url(#paint0_linear)"/><path d="M4.78 11.434h10.879v1.71H4.778v-1.71z" fill="url(#paint1_linear)"/><path d="M4.78 15.056h10.879v1.71H4.778v-1.71z" fill="url(#paint2_linear)"/><defs><linearGradient id="paint0_linear" x1="4.779" y1="8.971" x2="15.659" y2="8.971" gradientUnits="userSpaceOnUse"><stop stop-color="#41E700" stop-opacity="0"/><stop offset=".736" stop-color="#3ACD00"/><stop offset=".781" stop-color="#36BE00"/><stop offset=".926" stop-color="#299100"/><stop offset="1" stop-color="#248000"/></linearGradient><linearGradient id="paint1_linear" x1="4.779" y1="12.289" x2="15.659" y2="12.289" gradientUnits="userSpaceOnUse"><stop stop-color="#41E700" stop-opacity="0"/><stop offset=".736" stop-color="#3ACD00"/><stop offset=".781" stop-color="#36BE00"/><stop offset=".926" stop-color="#299100"/><stop offset="1" stop-color="#248000"/></linearGradient><linearGradient id="paint2_linear" x1="4.779" y1="15.911" x2="15.659" y2="15.911" gradientUnits="userSpaceOnUse"><stop stop-color="#41E700" stop-opacity="0"/><stop offset=".736" stop-color="#3ACD00"/><stop offset=".781" stop-color="#36BE00"/><stop offset=".926" stop-color="#299100"/><stop offset="1" stop-color="#248000"/></linearGradient></defs></svg>